<?xml version="1.0" standalone="no"?>
<!DOCTYPE svg PUBLIC "-//W3C//DTD SVG 1.1//EN" "http://www.w3.org/Graphics/SVG/1.1/DTD/svg11.dtd" >
<svg xmlns="http://www.w3.org/2000/svg">
<metadata></metadata>
<defs>
<font id="etelka_medium_proregular" horiz-adv-x="1204" >
<font-face units-per-em="2048" ascent="1638" descent="-410" />
<missing-glyph horiz-adv-x="544" />
<glyph horiz-adv-x="0" />
<glyph horiz-adv-x="682" />
<glyph unicode=" "  horiz-adv-x="544" />
<glyph unicode="&#x09;" horiz-adv-x="544" />
<glyph unicode="&#xa0;" horiz-adv-x="544" />
<glyph unicode="!" horiz-adv-x="679" d="M180 150q0 89 32 116t128 27q99 0 131.5 -27t32.5 -116q0 -97 -33 -128.5t-131 -31.5q-94 0 -127 31.5t-33 128.5zM182 1427h314l-64 -970h-186z" />
<glyph unicode="&#x22;" horiz-adv-x="757" d="M92 1427h230l-39 -491h-168zM442 1427h224l-39 -491h-166z" />
<glyph unicode="#" horiz-adv-x="1458" d="M51 362l15 203h260l20 326h-264l14 205h264l21 331h237l-22 -331h283l22 331h236l-21 -331h281l-15 -205h-280l-21 -326h285l-14 -203h-283l-25 -362h-235l22 362h-282l-23 -362h-237l24 362h-262zM561 565h283l22 326h-282z" />
<glyph unicode="$" horiz-adv-x="1273" d="M127 971q0 195 102.5 298t315.5 128v293h180v-283q230 -3 387 -55l-59 -226q-112 45 -328 48v-351q212 -29 315 -125t103 -268q0 -194 -101 -292t-317 -122v-297h-180v291q-242 3 -400 53l60 228q118 -40 340 -49v368q-213 25 -315.5 111t-102.5 250zM379 999 q0 -71 35.5 -104.5t130.5 -46.5v317q-166 -27 -166 -166zM725 250q85 14 125.5 53.5t40.5 112.5q0 75 -35.5 112.5t-130.5 55.5v-334z" />
<glyph unicode="%" horiz-adv-x="1964" d="M72 1006q0 264 84 360t288 96q205 0 289 -96t84 -360q0 -268 -86 -371q-83 -103 -287 -103q-202 0 -288 103q-84 104 -84 371zM295 1004q0 -172 31 -232q34 -57 118 -57q90 0 117 55q31 60 31 234q0 171 -31 225q-27 53 -117 53q-88 0 -118 -53q-31 -54 -31 -225zM420 0 l876 1427h240l-879 -1427h-237zM1147 444q0 263 84 359t289 96q204 0 288 -96t84 -359q0 -267 -86 -370q-83 -103 -286 -103t-289 103q-84 104 -84 370zM1370 442q0 -173 31 -233q34 -57 119 -57q90 0 116 57q31 60 31 233q0 172 -31 226q-26 51 -116 51t-119 -51 q-31 -54 -31 -226z" />
<glyph unicode="&#x26;" horiz-adv-x="1630" d="M102 373q0 353 383 368q-175 15 -233 97q-55 82 -55 243q0 197 108 289q109 92 387 92q272 0 385 -84q111 -82 111 -274q0 -160 -75.5 -243.5t-252.5 -96.5q142 -12 342 -258q84 141 84 305h273q0 -263 -195 -496q38 -49 221 -315h-307q-30 56 -100 154 q-131 -98 -253 -140.5t-284 -42.5q-299 0 -418 88q-121 89 -121 314zM389 412q0 -125 53.5 -172t198.5 -47q128 0 215.5 31.5t181.5 111.5q-216 297 -385 297q-141 0 -202.5 -50t-61.5 -171zM469 1055q0 -109 48.5 -154t164.5 -45q120 0 176.5 46.5t56.5 150.5t-49.5 144 t-173.5 40t-173.5 -39.5t-49.5 -142.5z" />
<glyph unicode="'" horiz-adv-x="413" d="M92 1427h230l-39 -491h-168z" />
<glyph unicode="(" horiz-adv-x="620" d="M139 561q0 449 121 732.5t330 377.5l117 -190q-299 -144 -299 -920q0 -392 79 -621t220 -298l-117 -191q-209 94 -330 377.5t-121 732.5z" />
<glyph unicode=")" horiz-adv-x="620" d="M-88 -358q299 144 299 919q0 392 -79 621.5t-220 298.5l119 190q209 -94 329.5 -377.5t120.5 -732.5t-120.5 -732.5t-329.5 -377.5z" />
<glyph unicode="*" horiz-adv-x="1011" d="M61 981v205h265l-133 231l182 103l131 -230l131 230l182 -103l-135 -231h266v-205h-266l133 -231l-180 -101l-131 225l-131 -225l-182 103l133 229h-265z" />
<glyph unicode="+" horiz-adv-x="1191" d="M98 621v241h375v377h244v-377h377v-241h-377v-377h-244v377h-375z" />
<glyph unicode="," horiz-adv-x="583" d="M20 -326l160 537h303l-235 -537h-228z" />
<glyph unicode="-" horiz-adv-x="622" d="M59 455v241h504v-241h-504z" />
<glyph unicode="." horiz-adv-x="583" d="M131 150q0 89 31 116t127 27q100 0 132 -27t32 -116q0 -97 -33 -128.5t-131 -31.5q-94 0 -126 31.5t-32 128.5z" />
<glyph unicode="/" horiz-adv-x="956" d="M31 0l729 1427h274l-729 -1427h-274z" />
<glyph unicode="0" horiz-adv-x="1282" d="M104 733q0 280 62 445q61 159 171.5 221.5t303.5 62.5q186 0 299 -61q238 -127 238 -668q-3 -220 -35 -366.5t-99.5 -234.5t-164 -124.5t-238.5 -36.5q-280 0 -408 168q-129 169 -129 594zM375 733q2 -115 7 -191t18 -136t30 -93.5t48.5 -56t68.5 -30.5t94 -11 q58 3 95.5 11t69 30.5t49 55.5t30 93.5t17.5 136.5t7 191q-2 87 -5 147.5t-10 113t-15.5 86t-24.5 60.5t-33.5 41t-46.5 24t-58.5 13t-74.5 5q-45 -2 -74.5 -5t-58.5 -13t-46 -24t-33 -41.5t-24 -60t-15 -85.5t-10 -113.5t-5 -147.5z" />
<glyph unicode="1" horiz-adv-x="1282" d="M180 1223l660 264v-1487h-265v1139l-319 -138z" />
<glyph unicode="2" horiz-adv-x="1282" d="M96 0v217l303 232q147 116 205 167q79 69 135 125q40 43 68 97q29 50 35 82t6 100q0 114 -57.5 156.5t-206.5 42.5q-224 0 -375 -56l-57 234q213 65 454 65q277 0 404 -92q125 -88 125 -328q0 -113 -25 -196q-20 -77 -102 -174q-77 -91 -201 -189q-122 -96 -344 -250h670 v-233h-1037z" />
<glyph unicode="3" horiz-adv-x="1282" d="M102 23l52 233q146 -41 364 -41q202 0 266 43q68 47 68 164q0 120 -56.5 166.5t-197.5 46.5h-203v229h197q134 0 186.5 40t52.5 143q0 100 -61 137t-246 37q-219 0 -358 -45l-53 233q248 53 462 53q298 0 420 -84q121 -83 121 -280q0 -165 -66.5 -245t-238.5 -97 q184 -7 259 -97t75 -274q0 -230 -133 -322t-441 -92q-240 0 -469 52z" />
<glyph unicode="4" horiz-adv-x="1273" d="M35 367v84q325 585 610 976h361v-837h190v-223h-190v-367h-258v367h-713zM362 590h386v604q-199 -264 -386 -604z" />
<glyph unicode="5" horiz-adv-x="1282" d="M131 23q40 165 53 233q137 -41 351 -41q194 0 256 41q63 42 63 170q0 139 -57 184t-250 45q-194 0 -350 -28v800h884v-233h-628v-317q96 8 170 8q296 0 409 -101q115 -103 115 -344q0 -267 -125 -368t-436 -101q-246 0 -455 52z" />
<glyph unicode="6" horiz-adv-x="1282" d="M111 725q0 222 35 363t114 225q80 83 195.5 116t300.5 33q209 0 395 -55l-59 -238q-130 48 -336 48q-100 0 -157 -13t-103 -49t-68.5 -105.5t-28.5 -187.5q141 23 271 23q298 0 411 -101q117 -102 117 -344q0 -267 -119 -368t-417 -101q-310 0 -431 160 q-120 163 -120 594zM395 635q3 -252 64 -338q58 -82 203 -82q151 0 202 45t51 166q0 133 -55 182q-52 49 -219 49q-114 0 -246 -22z" />
<glyph unicode="7" horiz-adv-x="1282" d="M137 1194v233h1096v-81q-145 -231 -330 -637q-182 -397 -289 -709h-305q118 323 281 672q161 348 284 522h-737z" />
<glyph unicode="8" horiz-adv-x="1282" d="M104 385q0 185 74.5 274.5t259.5 96.5q-117 11 -184.5 53t-93 110.5t-25.5 178.5q0 195 109 278q109 86 397 86t397 -86q109 -83 109 -278q0 -110 -25.5 -178.5t-93 -110.5t-184.5 -53q185 -7 259.5 -96.5t74.5 -274.5q0 -227 -121 -322q-121 -92 -416 -92 q-292 0 -416 92q-121 95 -121 322zM387 412q0 -125 54 -172t200 -47t201 47.5t55 171.5q0 125 -58 178t-198 53t-197 -53t-57 -178zM408 1055q0 -108 54 -154.5t179 -46.5q124 0 177.5 46.5t53.5 154.5q0 104 -50.5 143t-180.5 39q-131 0 -182 -39t-51 -143z" />
<glyph unicode="9" horiz-adv-x="1282" d="M104 979q0 270 119 377q118 106 418 106q321 0 432 -102q113 -101 113 -391q0 -279 -133 -512q-128 -224 -367 -457h-336q342 324 461 559q-92 -10 -178 -10q-301 0 -414 94q-115 95 -115 336zM387 991q0 -135 51 -174t224 -39q126 0 221 15q18 71 18 147q0 176 -53 229 q-52 52 -207 52q-149 0 -201.5 -50t-52.5 -180z" />
<glyph unicode=":" horiz-adv-x="583" d="M131 150q0 89 31 116t127 27q100 0 132 -27t32 -116q0 -97 -33 -128.5t-131 -31.5q-94 0 -126 31.5t-32 128.5zM131 909q0 91 31 118.5t127 27.5q100 0 132 -27.5t32 -118.5q0 -97 -33 -127t-131 -30q-94 0 -126 30.5t-32 126.5z" />
<glyph unicode=";" horiz-adv-x="583" d="M20 -326l160 537h303l-235 -537h-228zM131 909q0 91 31 118.5t127 27.5q100 0 132 -27.5t32 -118.5q0 -97 -33 -127t-131 -30q-94 0 -126 30.5t-32 126.5z" />
<glyph unicode="&#x3c;" horiz-adv-x="1191" d="M172 676v125l746 581l137 -180l-549 -461l549 -465l-133 -184z" />
<glyph unicode="=" horiz-adv-x="1191" d="M98 344v242h996v-242h-996zM98 885v241h996v-241h-996z" />
<glyph unicode="&#x3e;" horiz-adv-x="1191" d="M174 274l549 461l-549 467l133 182l748 -583v-125l-746 -582z" />
<glyph unicode="?" horiz-adv-x="1157" d="M86 1411q221 51 430 51q308 0 434 -102q125 -101 125 -369q0 -231 -117 -323q-116 -93 -368 -93v-151h-256v358h133q196 0 258 45q63 45 63 179q0 126 -57 168q-57 45 -231 45q-220 0 -365 -43zM293 150q0 89 31 116t127 27q100 0 131.5 -27t31.5 -116 q0 -97 -32.5 -128.5t-130.5 -31.5q-94 0 -126 31.5t-32 128.5z" />
<glyph unicode="@" horiz-adv-x="1923" d="M111 545q0 439 200 598q103 81 234 115t325 34q158 0 246.5 -21t153.5 -81q66 -61 94.5 -171t28.5 -296q0 -178 -21.5 -277.5t-77.5 -158.5q-55 -55 -132 -73.5t-224 -18.5q-241 0 -330 71q-88 70 -88 275q0 208 82 272q83 68 299 68q161 0 256 -21q-3 129 -59 174 q-59 47 -219 47q-173 0 -263 -19t-155 -77q-64 -55 -88.5 -155.5t-24.5 -280.5q0 -184 27 -286t98 -163t180.5 -83.5t307.5 -22.5q366 0 493 127q129 126 129 495q0 267 -45 383h231q41 -140 41 -391q0 -466 -196 -647q-192 -180 -651 -180q-238 0 -390.5 36t-259.5 122 q-107 85 -154.5 231t-47.5 375zM768 549q0 -96 39 -129q42 -31 160 -31q110 0 150 41.5t40 159.5v96q-69 14 -192 14q-116 0 -158 -28q-39 -26 -39 -123z" />
<glyph unicode="A" horiz-adv-x="1396" d="M-20 0q236 736 518 1427h424q257 -813 514 -1427h-299q-121 307 -138 356h-624l-111 -356h-284zM446 588h476q-112 315 -199 610h-55q-103 -265 -222 -610z" />
<glyph unicode="B" horiz-adv-x="1458" d="M180 0v1427h768q195 0 272.5 -82t77.5 -260q0 -158 -59 -235q-60 -79 -238 -94q184 -7 256 -94t72 -271q0 -391 -368 -391h-781zM451 227h450q137 0 137 201q0 211 -145 211h-442v-412zM451 858h438q123 0 123 172q0 89 -28 128.5t-95 39.5h-438v-340z" />
<glyph unicode="C" horiz-adv-x="1212" d="M109 727q0 219 40 362t125 224q85 83 202.5 116t301.5 33q215 0 410 -53l-60 -238q-125 46 -303 46q-134 0 -204 -16.5t-125 -65.5q-54 -50 -76.5 -146t-22.5 -264t22.5 -266t76.5 -152q54 -52 125 -70t204 -18q181 0 303 45l60 -241q-183 -52 -410 -52q-233 0 -377 66 q-292 140 -292 690z" />
<glyph unicode="D" horiz-adv-x="1507" d="M180 0v1427h545q180 0 299.5 -33.5t204.5 -111.5q170 -154 170 -563q0 -403 -162 -561q-161 -158 -512 -158h-545zM451 233h247q87 2 144 9.5t105.5 28t75.5 52.5t47 88t28.5 128t11.5 178q0 167 -19 256.5t-71 138.5q-49 49 -118.5 65.5t-203.5 16.5h-247v-961z" />
<glyph unicode="E" horiz-adv-x="1269" d="M180 0v1427h1037v-233h-766v-330h546v-231h-546v-400h766v-233h-1037z" />
<glyph unicode="F" horiz-adv-x="1196" d="M180 0v1427h1016v-233h-745v-403h546v-232h-546v-559h-271z" />
<glyph unicode="G" horiz-adv-x="1433" d="M109 727q0 428 180 588q92 80 216.5 113.5t311.5 33.5q235 0 430 -53l-55 -235q-122 43 -354 43q-110 0 -174 -10t-119 -38q-79 -36 -113.5 -142t-34.5 -302q0 -168 22.5 -267t76.5 -153q53 -52 125.5 -70t203.5 -18q99 0 185 21v368h-312v228h588v-801 q-195 -62 -508 -62q-233 0 -377 66q-292 140 -292 690z" />
<glyph unicode="H" horiz-adv-x="1507" d="M180 0v1427h271v-544h610v544h266v-1427h-266v633h-610v-633h-271z" />
<glyph unicode="I" horiz-adv-x="630" d="M180 0v1427h271v-1427h-271z" />
<glyph unicode="J" horiz-adv-x="944" d="M12 27l54 241q107 -43 243 -43q187 0 187 203v999h272l2 -1034q0 -422 -434 -422q-173 0 -324 56z" />
<glyph unicode="K" horiz-adv-x="1355" d="M180 0v1427h271v-1427h-271zM453 754q73 50 229 235q145 172 328 438h327q-184 -259 -325 -428t-213 -227q67 -46 229 -250q164 -206 354 -522h-331q-198 326 -365 526q-166 202 -233 228z" />
<glyph unicode="L" horiz-adv-x="1128" d="M180 0v1427h271v-1191h673v-236h-944z" />
<glyph unicode="M" horiz-adv-x="1875" d="M180 0v1427h369q201 -412 401 -913q173 458 396 913h350v-1427h-264v1063q-144 -313 -398 -932h-211q-275 696 -383 932v-1063h-260z" />
<glyph unicode="N" horiz-adv-x="1585" d="M180 0v1427h355q298 -469 600 -1030v1030h268v-1427h-330q-284 528 -629 1075v-1075h-264z" />
<glyph unicode="O" horiz-adv-x="1576" d="M109 727q0 428 170 586q90 81 209 115t300 34q182 0 302 -34.5t206 -114.5q170 -158 170 -586q0 -176 -27.5 -305t-79.5 -216t-136.5 -139t-189 -74t-245.5 -22q-181 0 -301.5 36t-207.5 120q-170 167 -170 600zM397 723q0 -111 7 -188t26 -135.5t45.5 -93t73 -55.5 t102 -28.5t137.5 -7.5t137.5 7.5t102 28.5t73.5 55.5t46 93t26 135.5t7 188q0 175 -16.5 265t-63.5 142q-45 53 -113 71t-199 18t-198 -18t-115 -71q-46 -52 -62 -143t-16 -264z" />
<glyph unicode="P" horiz-adv-x="1378" d="M180 0v1427h637q278 0 391 -116q113 -113 113 -373q0 -199 -102 -334q-103 -133 -289 -133h-479v-471h-271zM451 696h397q176 0 176 244q0 258 -170 258h-403v-502z" />
<glyph unicode="Q" horiz-adv-x="1603" d="M123 727q0 428 170 586q86 80 206 114.5t302 34.5t302 -34.5t206 -114.5q90 -81 131 -224.5t41 -361.5q0 -327 -97.5 -492t-302.5 -204q149 -41 424 -424h-315q-110 168 -213.5 262t-179.5 102q-234 3 -379 68q-295 138 -295 688zM412 723q0 -175 16 -267t61 -147 q46 -55 114.5 -74.5t197.5 -19.5q101 0 163 12t109 41q69 49 93.5 148.5t27.5 306.5q0 218 -35 321q-35 105 -112 140q-78 35 -246 35q-84 0 -138.5 -6.5t-101.5 -26.5t-72.5 -52.5t-44 -90t-25 -133t-7.5 -187.5z" />
<glyph unicode="R" horiz-adv-x="1445" d="M180 0v1427h744q397 0 397 -415q0 -376 -375 -391q71 -26 180 -168q111 -141 297 -453h-333q-162 284 -270.5 414.5t-178.5 130.5h-190v-545h-271zM451 768h403q76 0 121 53t45 156q0 221 -160 221h-409v-430z" />
<glyph unicode="S" horiz-adv-x="1273" d="M100 997q0 243 149 354t460 111q247 0 436 -63l-60 -234q-143 52 -376 52q-174 0 -248 -42.5t-74 -144.5q0 -84 62 -125q62 -39 251 -57q253 -26 366.5 -127t113.5 -301q0 -243 -146.5 -346t-470.5 -103q-258 0 -444 64l59 233q159 -51 381 -51q179 0 254.5 42t75.5 147 q0 88 -68 135q-67 48 -258 63q-248 25 -355.5 114t-107.5 279z" />
<glyph unicode="T" horiz-adv-x="1247" d="M6 1194v233h1235v-233h-481v-1194h-273v1194h-481z" />
<glyph unicode="U" horiz-adv-x="1519" d="M160 432v995h272v-956q0 -140 75.5 -196t252.5 -56q183 0 256.5 55t73.5 199v954h270v-995q0 -263 -150 -362q-147 -99 -450 -99t-453 99q-147 99 -147 362z" />
<glyph unicode="V" horiz-adv-x="1327" d="M-39 1427h299q244 -592 408 -1153q195 480 393 1153h285q-214 -697 -523 -1427h-346q-260 847 -516 1427z" />
<glyph unicode="W" horiz-adv-x="1996" d="M-4 1427h295q164 -492 307 -1091q215 714 287 1091h250q210 -749 280 -1091q174 542 297 1091h279q-181 -743 -414 -1427h-344q-79 424 -223 979q-76 -376 -262 -979h-342q-226 907 -410 1427z" />
<glyph unicode="X" horiz-adv-x="1380" d="M-6 0l543 721l-537 706h346l359 -471l327 471h332l-494 -700l516 -727h-335l-349 494l-378 -494h-330z" />
<glyph unicode="Y" horiz-adv-x="1306" d="M-78 1427h352q197 -248 398 -544q227 302 377 544h327q-269 -405 -575 -811v-616h-271v614q-377 532 -608 813z" />
<glyph unicode="Z" horiz-adv-x="1271" d="M35 0v66q387 525 782 1128h-737v233h1157v-61q-168 -272 -395 -600q-242 -350 -387 -533h768v-233h-1188z" />
<glyph unicode="[" horiz-adv-x="698" d="M184 -532v2181h553v-222h-288v-1740h288v-219h-553z" />
<glyph unicode="\" horiz-adv-x="956" d="M-59 1427h274l729 -1427h-274z" />
<glyph unicode="]" horiz-adv-x="698" d="M-39 -313h289v1740h-289v222h553v-2181h-553v219z" />
<glyph unicode="^" horiz-adv-x="1087" d="M27 606l393 821h244l397 -821h-275l-247 545l-244 -545h-268z" />
<glyph unicode="_" horiz-adv-x="962" d="M59 -98h844v-242h-844v242z" />
<glyph unicode="`" horiz-adv-x="985" d="M190 1427h271l250 -264h-226z" />
<glyph unicode="a" horiz-adv-x="1146" d="M100 319q0 206 101 273q101 70 309 70q110 0 258 -29q0 139 -49 182q-48 45 -211 45q-175 0 -315 -51l-48 209q207 55 416 55q237 0 344 -90q107 -88 107 -315v-615q-207 -82 -471 -82q-249 0 -346 72q-95 74 -95 276zM367 330q0 -106 36 -135q40 -29 156 -29 q106 0 209 35v260q-85 18 -207 18q-119 0 -156.5 -27t-37.5 -122z" />
<glyph unicode="b" d="M141 47v1432h254v-475q112 69 271 69q224 0 327 -121q105 -120 105 -424q0 -313 -117 -436q-118 -121 -383 -121q-271 0 -457 76zM395 213q82 -33 203 -33q141 0 190 64q50 65 50 280q0 191 -52 258q-50 68 -184 68q-89 0 -148 -27t-59 -71v-539z" />
<glyph unicode="c" horiz-adv-x="962" d="M104 526q0 304 132 424q132 123 385 123q186 0 317 -49l-57 -217q-116 45 -242 45q-63 0 -103 -7t-73.5 -26t-52 -56.5t-29.5 -95t-14 -145.5q0 -197 61 -264q65 -65 211 -65q123 0 242 49l57 -217q-136 -54 -317 -54q-254 0 -385 125q-132 126 -132 430z" />
<glyph unicode="d" d="M104 522q0 293 112 422t341 129q141 0 250 -59v465h254v-1432q-186 -76 -455 -76t-385 119q-117 120 -117 432zM367 526q0 -208 49 -272q54 -66 190 -66q110 0 201 31v539q0 44 -58.5 72t-146.5 28q-134 0 -186 -70q-49 -70 -49 -262z" />
<glyph unicode="e" horiz-adv-x="1130" d="M104 526q0 292 119 419.5t367 127.5q134 0 216.5 -26.5t141.5 -92.5q61 -67 85 -187q19 -96 19 -238q0 -36 -1 -74h-680q3 -161 63 -215q63 -54 207 -54q151 0 293 43l41 -200q-171 -58 -365 -58q-243 0 -374 125q-132 126 -132 430zM373 649h428q-6 134 -47 178 q-39 45 -154 45q-119 0 -167 -47t-60 -176z" />
<glyph unicode="f" horiz-adv-x="770" d="M10 821v221h174v70q0 212 101 291q103 80 276 80q161 0 289 -45l-29 -103l-28 -98q-92 29 -189 29q-88 0 -127 -38t-39 -130v-56h338v-221h-338v-821h-254v821h-174z" />
<glyph unicode="g" d="M104 518q0 312 117 432q120 123 385 123q264 0 455 -78v-915q0 -300 -156 -402q-76 -53 -170 -74.5t-231 -21.5q-207 0 -367 62l51 204q154 -51 314 -51q158 0 231.5 56.5t73.5 189.5q-112 -68 -264 -68q-227 0 -334 119q-105 120 -105 424zM367 520q0 -193 49 -260 q50 -65 184 -65q89 0 148 27t59 71v536q-93 35 -201 35q-140 0 -190 -65q-49 -64 -49 -279z" />
<glyph unicode="h" horiz-adv-x="1193" d="M141 0v1479h254v-478q141 72 287 72q132 0 207 -37q170 -77 170 -436v-600h-254v580q0 105 -22.5 162.5t-66 79.5t-120.5 22q-87 0 -144 -25t-57 -67v-752h-254z" />
<glyph unicode="i" horiz-adv-x="536" d="M123 1352q0 77 29 101t118 24q88 0 117 -24t29 -101q0 -87 -29.5 -114.5t-116.5 -27.5q-89 0 -118 27.5t-29 114.5zM141 0v1042h254v-1042h-254z" />
<glyph unicode="j" horiz-adv-x="536" d="M-33 -205q93 0 133.5 40t40.5 138v1069h254v-1062q0 -224 -102 -310q-103 -86 -326 -86v211zM123 1352q0 77 29 101t118 24q88 0 117 -24t29 -101q0 -87 -29.5 -114.5t-116.5 -27.5q-89 0 -118 27.5t-29 114.5z" />
<glyph unicode="k" horiz-adv-x="1128" d="M141 0v1479h254v-928q95 77 404 491h301q-285 -383 -400 -473q47 -28 164 -181t266 -388h-299q-358 517 -436 551v-551h-254z" />
<glyph unicode="l" horiz-adv-x="548" d="M141 283v1196h254v-1186q0 -137 80 -246l-223 -96q-111 126 -111 332z" />
<glyph unicode="m" horiz-adv-x="1804" d="M141 0v983q238 90 482 90q179 0 266 -69q189 69 371 69q224 0 315 -108q94 -107 94 -383v-582h-254v555q0 173 -43 231q-40 58 -166 58q-100 0 -202 -29q28 -98 28 -233v-582h-254v555q0 173 -43 231q-40 58 -166 58q-82 0 -174 -25v-819h-254z" />
<glyph unicode="n" horiz-adv-x="1193" d="M141 0v983q238 90 494 90q224 0 323 -108q101 -107 101 -383v-582h-254v555q0 174 -45 231q-43 58 -178 58q-92 0 -187 -25v-819h-254z" />
<glyph unicode="o" d="M104 526q0 307 119 426q121 121 377 121q260 0 381 -121q119 -119 119 -426q0 -312 -119 -434q-121 -121 -381 -121q-258 0 -379 121q-117 123 -117 434zM367 522q0 -210 47 -278q50 -68 186 -68q138 0 188 68t50 278q-2 79 -6.5 131t-16 92t-27 62.5t-44 36.5t-61 18.5 t-83.5 5.5q-139 0 -186 -65t-47 -281z" />
<glyph unicode="p" d="M141 -393v1388q191 78 457 78q265 0 383 -121q117 -120 117 -430q0 -301 -115 -428q-114 -123 -338 -123q-127 0 -250 60v-424h-254zM395 287q0 -44 59 -72.5t146 -28.5q134 0 186 70t52 260q0 208 -52 272q-51 66 -188 66q-121 0 -203 -31v-536z" />
<glyph unicode="q" d="M104 518q0 312 117 432q120 123 385 123q264 0 455 -78v-1388h-254v434q-113 -70 -270 -70q-226 0 -330 119q-103 121 -103 428zM367 520q0 -193 49 -260q50 -65 184 -65q89 0 148 27t59 71v536q-93 35 -201 35q-140 0 -190 -65q-49 -64 -49 -279z" />
<glyph unicode="r" horiz-adv-x="776" d="M141 0v1042h254v-77q71 108 267 108q50 0 106 -6v-242q-65 15 -133 15q-103 0 -171.5 -31.5t-68.5 -85.5v-723h-254z" />
<glyph unicode="s" horiz-adv-x="1005" d="M92 727q0 185 112 265.5t335 80.5q182 0 350 -57l-55 -199q-148 49 -304 49q-108 0 -148 -24t-40 -97q0 -54 44 -77t171 -35q197 -20 280 -91t83 -223q0 -193 -115 -270q-116 -78 -332 -78t-373 56l54 200q137 -49 309 -49q116 0 160.5 25.5t44.5 101.5q0 58 -48 85.5 t-176 39.5q-187 14 -269.5 80.5t-82.5 216.5z" />
<glyph unicode="t" horiz-adv-x="849" d="M20 821v221h175v177l254 104v-281h346v-221h-346v-448q0 -94 37 -138.5t120 -44.5t178 29l45 -201q-133 -47 -286 -47q-183 0 -267 78q-81 78 -81 301v471h-175z" />
<glyph unicode="u" horiz-adv-x="1193" d="M135 463v579h254v-555q0 -173 43 -231q46 -55 178 -55q98 0 189 24v817h254v-981q-241 -90 -494 -90q-223 0 -326 109q-98 107 -98 383z" />
<glyph unicode="v" horiz-adv-x="1046" d="M0 1042h264q138 -350 258 -786q172 454 258 786h258q-141 -477 -374 -1042h-314q-172 609 -350 1042z" />
<glyph unicode="w" horiz-adv-x="1699" d="M0 1042h268q137 -370 238 -782q54 158 123 395q53 184 102 387h248q120 -358 211 -782q170 468 242 782h258q-148 -532 -357 -1042h-315q-77 394 -168 698q-75 -340 -201 -698h-313q-156 563 -336 1042z" />
<glyph unicode="x" horiz-adv-x="1067" d="M12 0q158 187 406 520q-229 319 -404 522h303q111 -139 240 -319q90 124 215 319h283l-359 -514q228 -323 361 -528h-287q-79 131 -219 330q-156 -211 -256 -330h-283z" />
<glyph unicode="y" horiz-adv-x="1046" d="M0 1042h264q137 -344 258 -790q177 467 258 790h258q-239 -808 -557 -1435h-282q68 119 170 342q-168 606 -369 1093z" />
<glyph unicode="z" horiz-adv-x="1017" d="M37 0v51q153 192 303 408q171 249 242 362h-510v221h899v-51q-104 -169 -271 -405q-160 -233 -266 -365h522v-221h-919z" />
<glyph unicode="{" horiz-adv-x="692" d="M63 457v209q102 0 164 119t62 343q0 430 336 545l120 -190q-109 -40 -161 -131q-49 -88 -49 -305q0 -213 -60 -342q-59 -124 -121 -144q62 -17 121 -145q60 -129 60 -344q0 -217 49 -305q52 -93 161 -132l-120 -188q-336 115 -336 547q0 225 -62 344t-164 119z" />
<glyph unicode="|" horiz-adv-x="759" d="M246 -524v2070h268v-2070h-268z" />
<glyph unicode="}" horiz-adv-x="692" d="M-53 -360q106 37 159 129q52 88 52 307t57 342q58 125 123 143q-63 18 -123 146q-57 123 -57 344q0 217 -49 305q-50 89 -162 129l121 188q335 -114 335 -545q0 -224 62 -343t164 -119v-211q-102 0 -164 -118.5t-62 -342.5q0 -433 -335 -547z" />
<glyph unicode="~" horiz-adv-x="1191" d="M78 741q117 199 280 199q96 0 250 -86q156 -84 207 -84q48 0 79 31t60 110l164 -129q-39 -107 -122 -171t-191 -64q-84 0 -236 88t-213 88q-78 0 -131 -123z" />
<glyph unicode="&#xa2;" horiz-adv-x="937" d="M104 784q0 257 99 385t297 152v217h200v-213q134 -9 220 -43l-58 -211q-72 30 -162 33v-651q98 6 162 36l58 -206q-83 -38 -220 -50v-247h-200v247q-200 27 -298 157.5t-98 393.5zM348 778q0 -140 36.5 -211.5t115.5 -95.5v616q-81 -21 -116.5 -91.5t-35.5 -217.5z" />
<glyph unicode="&#xa3;" horiz-adv-x="1249" d="M74 600v215h121v162q0 246 139 364.5t432 118.5q256 0 436 -63l-59 -232q-146 49 -377 49q-166 0 -233.5 -50.5t-67.5 -170.5v-178h403v-215h-403v-367h694v-233h-964v600h-121z" />
<glyph unicode="&#xa5;" horiz-adv-x="1306" d="M-78 1427h352q197 -248 398 -544q227 302 377 544h327q-203 -308 -471 -669h246v-189h-350v-159h350v-189h-350v-221h-271v221h-364v189h364v159h-364v189h262q-306 424 -506 669z" />
<glyph unicode="&#xa8;" horiz-adv-x="946" d="M123 1282q0 71 24 92t97 21q74 0 98.5 -21.5t24.5 -91.5q0 -77 -25 -102t-98 -25t-97 24.5t-24 102.5zM559 1282q0 71 24 92t99 21q73 0 97 -21t24 -92q0 -76 -25.5 -101.5t-95.5 -25.5q-74 0 -98.5 24.5t-24.5 102.5z" />
<glyph unicode="&#xa9;" horiz-adv-x="1714" d="M123 727q0 217 45 361t141 225q95 80 224 114.5t323 34.5t324 -34.5t225 -114.5q96 -81 141 -225t45 -361q0 -425 -176 -592q-176 -164 -559 -164q-193 0 -323.5 36t-225.5 120q-184 169 -184 600zM348 725q0 -184 25.5 -292.5t87.5 -170.5q64 -59 151.5 -80.5 t243.5 -21.5q159 0 246.5 21.5t148.5 80.5q64 61 89.5 169t25.5 294q0 185 -25.5 290t-89.5 163q-63 58 -148 77t-247 19q-160 0 -245 -19t-148 -77q-64 -58 -89.5 -163t-25.5 -290zM475 723q0 260 98 348q103 92 330 92q153 0 266 -39l-47 -184q-82 33 -207 33 q-118 0 -165 -47q-43 -46 -43 -205q0 -152 45 -203t163 -51q120 0 207 37l47 -182q-119 -46 -266 -46q-227 0 -330 95q-98 94 -98 352z" />
<glyph unicode="&#xab;" horiz-adv-x="1368" d="M55 639l553 571l146 -149l-361 -418l361 -426l-144 -154zM614 639l553 571l146 -149l-361 -418l361 -426l-144 -154z" />
<glyph unicode="&#xad;" horiz-adv-x="622" d="M59 455v241h504v-241h-504z" />
<glyph unicode="&#xae;" horiz-adv-x="1169" d="M96 954q0 287 115 396q113 110 373 110q261 0 374 -110q115 -109 115 -396q0 -283 -117 -397q-113 -113 -372 -113q-260 0 -373 113q-115 115 -115 397zM266 954q0 -210 68 -284q72 -72 250 -72q183 0 252 72t69 284q0 222 -67 289q-65 68 -254 68q-184 0 -252 -68 q-66 -69 -66 -289zM362 684v545h334q71 0 108.5 -49t37.5 -131q0 -88 -34.5 -126t-105.5 -38q90 -44 125 -201h-174q-11 56 -40 106t-52 50h-39v-156h-160zM522 979h111q43 0 43 61q0 58 -43 58h-111v-119z" />
<glyph unicode="&#xb4;" horiz-adv-x="985" d="M190 1163l248 264h273l-297 -264h-224z" />
<glyph unicode="&#xb8;" horiz-adv-x="1312" d="M520 -383l45 111q52 -25 146 -25q48 0 66 11.5t18 41.5q0 38 -40 49t-153 5l74 190h100v-86q124 0 174.5 -35t50.5 -125q0 -96 -62 -133t-218 -37q-131 0 -201 33z" />
<glyph unicode="&#xbb;" horiz-adv-x="1368" d="M55 215l363 418l-363 428l144 151l557 -573l-553 -573zM614 215l363 418l-363 428l144 151l557 -573l-553 -573z" />
<glyph unicode="&#x2c6;" horiz-adv-x="1351" d="M322 1163l249 264h250l258 -264h-239l-146 156l-141 -156h-231z" />
<glyph unicode="&#x2da;" horiz-adv-x="1462" d="M492 1317q0 108 57 154.5t188 46.5q126 0 185 -47t59 -154q0 -108 -57.5 -154.5t-186.5 -46.5t-187 46.5t-58 154.5zM635 1313q0 -48 21.5 -68t80.5 -20t81 20t22 68q0 50 -21 69t-82 19q-60 0 -81 -19t-21 -69z" />
<glyph unicode="&#x2dc;" horiz-adv-x="1464" d="M291 1262q94 165 223 165q77 0 162 -55q86 -53 129 -53q37 0 60 25.5t48 93.5l127 -103q-67 -190 -239 -190q-65 0 -154 53q-88 55 -135 55q-63 0 -106 -104z" />
<glyph unicode="&#x401;" horiz-adv-x="1269" d="M180 0v1427h1037v-233h-766v-330h546v-231h-546v-400h766v-233h-1037zM346 1655q0 71 24.5 92.5t98.5 21.5q73 0 97 -21.5t24 -92.5q0 -77 -24 -101t-97 -24t-98 24t-25 101zM782 1655q0 71 24 92.5t99 21.5q73 0 97 -21.5t24 -92.5q0 -77 -24 -101t-97 -24 q-74 0 -98.5 24t-24.5 101z" />
<glyph unicode="&#x402;" horiz-adv-x="1544" d="M6 1194v233h1235v-233h-481v-274q136 71 287 71q80 0 138 -14t108 -51.5t80.5 -103t47.5 -169t17 -247.5q0 -609 -326 -779l-178 174q58 31 92.5 63.5t69.5 96.5q73 125 73 436q0 289 -90 340q-42 25 -121 25q-81 0 -139 -24t-59 -62v-676h-273v1194h-481z" />
<glyph unicode="&#x403;" horiz-adv-x="1128" d="M180 0v1427h965v-233h-694v-1194h-271zM469 1530l264 264h281l-324 -264h-221z" />
<glyph unicode="&#x404;" horiz-adv-x="1261" d="M109 727q0 430 170 588q89 80 208 113.5t301 33.5q225 0 420 -53l-59 -238q-125 46 -313 46q-118 0 -184.5 -12.5t-121.5 -47.5q-56 -36 -84.5 -105.5t-39.5 -187.5h608v-229h-611q6 -133 33.5 -216t83.5 -126q56 -42 127 -58t189 -16q191 0 313 45l59 -241 q-183 -52 -420 -52q-355 0 -518 166q-161 167 -161 590z" />
<glyph unicode="&#x405;" horiz-adv-x="1273" d="M100 997q0 243 149 354t460 111q247 0 436 -63l-60 -234q-143 52 -376 52q-174 0 -248 -42.5t-74 -144.5q0 -84 62 -125q62 -39 251 -57q253 -26 366.5 -127t113.5 -301q0 -243 -146.5 -346t-470.5 -103q-258 0 -444 64l59 233q159 -51 381 -51q179 0 254.5 42t75.5 147 q0 88 -68 135q-67 48 -258 63q-248 25 -355.5 114t-107.5 279z" />
<glyph unicode="&#x406;" horiz-adv-x="630" d="M180 0v1427h271v-1427h-271z" />
<glyph unicode="&#x407;" horiz-adv-x="630" d="M-27 1655q0 71 24.5 92.5t98.5 21.5q73 0 97 -21.5t24 -92.5q0 -77 -24 -101t-97 -24t-98 24t-25 101zM180 0v1427h271v-1427h-271zM410 1655q0 71 23.5 92.5t98.5 21.5q73 0 97 -21.5t24 -92.5q0 -77 -24 -101t-97 -24q-74 0 -98 24t-24 101z" />
<glyph unicode="&#x408;" horiz-adv-x="944" d="M12 27l54 241q107 -43 243 -43q187 0 187 203v999h272l2 -1034q0 -422 -434 -422q-173 0 -324 56z" />
<glyph unicode="&#x409;" horiz-adv-x="2187" d="M59 227q298 0 344 1200h869v-512h457q193 0 287.5 -120t94.5 -336q0 -459 -370 -459h-740v1194h-346q-19 -281 -61.5 -503t-109 -384t-161.5 -249t-214 -87zM1272 227h393q154 0 154 232q0 237 -160 237h-387v-469z" />
<glyph unicode="&#x40a;" horiz-adv-x="2203" d="M180 0v1427h271v-518h569v518h268v-520h457q193 0 288 -119t95 -335q0 -453 -371 -453h-737v682h-569v-682h-271zM1288 227h393q79 0 116.5 55t37.5 171q0 229 -160 229h-387v-455z" />
<glyph unicode="&#x40b;" horiz-adv-x="1556" d="M6 1194v233h1235v-233h-481v-274q136 71 287 71q131 0 206 -37q170 -77 170 -436v-518h-254v498q0 159 -49 211q-50 53 -162 53q-81 0 -139 -24t-59 -62v-676h-273v1194h-481z" />
<glyph unicode="&#x40c;" horiz-adv-x="1359" d="M180 0v1427h271v-688q115 112 258 287q154 185 301 401h327q-172 -243 -313.5 -415t-208.5 -226q66 -22 105.5 -44.5t91.5 -73.5q50 -44 108 -133q113 -176 252 -535h-321q-106 276 -193 414q-92 145 -182 198q-91 54 -225 66v-678h-271zM567 1530l264 264h281l-324 -264 h-221z" />
<glyph unicode="&#x40e;" horiz-adv-x="1196" d="M-31 1427h322q212 -384 354 -772q230 467 336 772h305q-139 -352 -334 -745q-192 -391 -372 -682h-340q118 156 235 360q-73 208 -227 535q-149 320 -279 532zM346 1784h174q0 -68 30.5 -93.5t104.5 -25.5t106 26.5t32 92.5h163q0 -281 -307 -281q-303 0 -303 281z" />
<glyph unicode="&#x40f;" horiz-adv-x="1507" d="M182 0v1427h271v-1183h610v1183h266v-1427h-436l-43 -385h-180l-43 385h-445z" />
<glyph unicode="&#x410;" horiz-adv-x="1396" d="M-20 0q236 736 518 1427h424q257 -813 514 -1427h-299q-121 307 -138 356h-624l-111 -356h-284zM446 588h476q-112 315 -199 610h-55q-103 -265 -222 -610z" />
<glyph unicode="&#x411;" horiz-adv-x="1456" d="M180 0v1427h1028v-233h-757v-336h497q381 0 381 -434q0 -221 -92 -322.5t-276 -101.5h-781zM451 227h450q137 0 137 201q0 211 -145 211h-442v-412z" />
<glyph unicode="&#x412;" horiz-adv-x="1458" d="M180 0v1427h768q195 0 272.5 -82t77.5 -260q0 -158 -59 -235q-60 -79 -238 -94q184 -7 256 -94t72 -271q0 -391 -368 -391h-781zM451 227h450q137 0 137 201q0 211 -145 211h-442v-412zM451 858h438q123 0 123 172q0 89 -28 128.5t-95 39.5h-438v-340z" />
<glyph unicode="&#x413;" horiz-adv-x="1114" d="M180 0v1427h965v-233h-694v-1194h-271z" />
<glyph unicode="&#x414;" horiz-adv-x="1642" d="M8 244h225q186 521 213 1183h943v-1183h253l-43 -559h-237v315h-1071v-315h-238q-3 27 -6 67.5t-7.5 102.5t-8.5 110q-19 242 -23 279zM526 244h594v950h-426q-41 -559 -168 -950z" />
<glyph unicode="&#x415;" horiz-adv-x="1269" d="M180 0v1427h1037v-233h-766v-330h546v-231h-546v-400h766v-233h-1037z" />
<glyph unicode="&#x416;" horiz-adv-x="1955" d="M-12 0q155 452 282 612q61 77 109.5 112.5t120.5 61.5q-130 112 -482 641h320q266 -423 504 -679v679h270v-679q241 261 506 679h317q-338 -512 -479 -641q91 -34 154 -88q69 -60 164 -237.5t194 -460.5h-313q-96 274 -176 414q-82 143 -164 198q-83 56 -203 68v-680 h-270v680q-180 -18 -295 -154q-112 -132 -248 -526h-311z" />
<glyph unicode="&#x417;" horiz-adv-x="1314" d="M102 23l52 235q148 -43 385 -43q204 0 278 45q76 46 76 162q0 117 -60.5 165t-203.5 48h-234v229h228q137 0 190 39.5t53 143.5q0 100 -67 137q-64 37 -260 37q-230 0 -375 -45l-53 233q251 53 481 53q306 0 434 -84q127 -83 127 -280q0 -166 -64.5 -245.5t-236.5 -96.5 q184 -7 259 -97t75 -274q0 -225 -139 -319.5t-455 -94.5q-261 0 -490 52z" />
<glyph unicode="&#x418;" horiz-adv-x="1585" d="M180 0v1427h266v-1077q350 560 631 1077h326v-1427h-264v1032q-324 -597 -604 -1032h-355z" />
<glyph unicode="&#x419;" horiz-adv-x="1585" d="M180 0v1427h266v-1077q350 560 631 1077h326v-1427h-264v1032q-324 -597 -604 -1032h-355zM487 1784h175q0 -68 30.5 -93.5t104.5 -25.5t105.5 26.5t31.5 92.5h164q0 -281 -307 -281q-304 0 -304 281z" />
<glyph unicode="&#x41a;" horiz-adv-x="1359" d="M180 0v1427h271v-688q115 112 258 287q154 185 301 401h327q-172 -243 -313.5 -415t-208.5 -226q66 -22 105.5 -44.5t91.5 -73.5q50 -44 108 -133q113 -176 252 -535h-321q-106 276 -193 414q-92 145 -182 198q-91 54 -225 66v-678h-271z" />
<glyph unicode="&#x41b;" horiz-adv-x="1490" d="M59 227q298 0 344 1200h908v-1427h-267v1194h-389q-19 -281 -61.5 -503t-109 -384t-161.5 -249t-214 -87z" />
<glyph unicode="&#x41c;" horiz-adv-x="1875" d="M180 0v1427h369q201 -412 401 -913q173 458 396 913h350v-1427h-264v1063q-144 -313 -398 -932h-211q-275 696 -383 932v-1063h-260z" />
<glyph unicode="&#x41d;" horiz-adv-x="1507" d="M180 0v1427h271v-544h610v544h266v-1427h-266v633h-610v-633h-271z" />
<glyph unicode="&#x41e;" horiz-adv-x="1576" d="M109 727q0 428 170 586q90 81 209 115t300 34q182 0 302 -34.5t206 -114.5q170 -158 170 -586q0 -176 -27.5 -305t-79.5 -216t-136.5 -139t-189 -74t-245.5 -22q-181 0 -301.5 36t-207.5 120q-170 167 -170 600zM397 723q0 -111 7 -188t26 -135.5t45.5 -93t73 -55.5 t102 -28.5t137.5 -7.5t137.5 7.5t102 28.5t73.5 55.5t46 93t26 135.5t7 188q0 175 -16.5 265t-63.5 142q-45 53 -113 71t-199 18t-198 -18t-115 -71q-46 -52 -62 -143t-16 -264z" />
<glyph unicode="&#x41f;" horiz-adv-x="1507" d="M180 0v1427h1147v-1427h-266v1194h-610v-1194h-271z" />
<glyph unicode="&#x420;" horiz-adv-x="1378" d="M180 0v1427h637q278 0 391 -116q113 -113 113 -373q0 -199 -102 -334q-103 -133 -289 -133h-479v-471h-271zM451 696h397q176 0 176 244q0 258 -170 258h-403v-502z" />
<glyph unicode="&#x421;" horiz-adv-x="1212" d="M109 727q0 219 40 362t125 224q85 83 202.5 116t301.5 33q215 0 410 -53l-60 -238q-125 46 -303 46q-134 0 -204 -16.5t-125 -65.5q-54 -50 -76.5 -146t-22.5 -264t22.5 -266t76.5 -152q54 -52 125 -70t204 -18q181 0 303 45l60 -241q-183 -52 -410 -52q-233 0 -377 66 q-292 140 -292 690z" />
<glyph unicode="&#x422;" horiz-adv-x="1247" d="M6 1194v233h1235v-233h-481v-1194h-273v1194h-481z" />
<glyph unicode="&#x423;" horiz-adv-x="1255" d="M-31 1427h322q212 -384 354 -772q230 467 336 772h305q-139 -352 -334 -745q-192 -391 -372 -682h-340q137 185 237 362q-80 218 -229 535q-151 321 -279 530z" />
<glyph unicode="&#x424;" horiz-adv-x="1636" d="M74 717q0 276 125 395q128 122 469 137v178h268v-178q346 -15 479 -139q133 -121 133 -393q0 -274 -133 -398q-134 -122 -479 -137v-182h-268v182q-341 15 -469 137q-125 122 -125 398zM344 715q0 -173 62 -238t262 -74v623q-203 -9 -265 -74q-59 -65 -59 -237zM936 403 q74 3 127.5 11t91.5 25.5t61 40t36 59t17.5 77t4.5 99.5q0 177 -64 241q-63 66 -274 72v-625z" />
<glyph unicode="&#x425;" horiz-adv-x="1380" d="M-6 0l543 721l-537 706h346l359 -471l327 471h332l-494 -700l516 -727h-335l-349 494l-378 -494h-330z" />
<glyph unicode="&#x426;" horiz-adv-x="1583" d="M180 0v1427h271v-1183h610v1183h266v-1183h256l-45 -559h-235v315h-1123z" />
<glyph unicode="&#x427;" horiz-adv-x="1366" d="M51 895v532h271v-514q0 -164 63 -215q65 -53 236 -53q138 0 216 34.5t78 96.5v651h271v-1427h-271v459q-117 -66 -348 -66q-127 0 -213 21t-157 73q-146 109 -146 408z" />
<glyph unicode="&#x428;" horiz-adv-x="1994" d="M180 0v1427h271v-1183h413v1183h269v-1183h413v1183h269v-1427h-1635z" />
<glyph unicode="&#x429;" horiz-adv-x="2068" d="M180 0v1427h271v-1183h413v1183h269v-1183h413v1183h269v-1183h253l-43 -559h-237v315h-1608z" />
<glyph unicode="&#x42a;" horiz-adv-x="1476" d="M35 1194v233h485v-507h498q192 0 287.5 -122t95.5 -339q0 -459 -371 -459h-780v1194h-215zM520 227h434q154 0 154 232q0 235 -160 235h-428v-467z" />
<glyph unicode="&#x42b;" horiz-adv-x="1914" d="M180 0v1427h271v-507h497q186 0 284.5 -125.5t98.5 -335.5q0 -459 -370 -459h-781zM451 227h434q153 0 153 232q0 235 -159 235h-428v-467zM1464 0v1427h271v-1427h-271z" />
<glyph unicode="&#x42c;" horiz-adv-x="1406" d="M180 0v1427h271v-507h497q186 0 284.5 -125.5t98.5 -335.5q0 -459 -370 -459h-781zM451 227h434q153 0 153 232q0 235 -159 235h-428v-467z" />
<glyph unicode="&#x42d;" horiz-adv-x="1261" d="M53 23l60 241q122 -45 313 -45q118 0 188.5 16t126.5 58q56 43 83.5 126t33.5 216h-610v229h608q-11 117 -40 187t-85 106q-55 35 -121.5 47.5t-183.5 12.5q-188 0 -313 -46l-60 238q195 53 420 53q183 0 302.5 -33.5t205.5 -113.5q90 -81 131 -224.5t41 -363.5 q0 -420 -164 -590q-163 -166 -516 -166q-237 0 -420 52z" />
<glyph unicode="&#x42e;" horiz-adv-x="1978" d="M180 0v1427h271v-544h315q21 322 158 450q138 129 393 129q190 0 303 -61q250 -128 250 -668q0 -217 -35.5 -366t-108.5 -235.5t-171.5 -123.5t-237.5 -37q-264 0 -402 150q-136 148 -151 512h-313v-633h-271zM1040 733q2 -134 11.5 -221t27.5 -147t51.5 -91t76 -44 t110.5 -15q165 0 219 100q55 101 55 418q0 95 -4.5 164t-12.5 122.5t-24 88t-35 58t-50 35.5t-64.5 17t-83.5 5q-56 0 -93 -6t-70.5 -25t-53 -52t-34.5 -88t-20.5 -132.5t-5.5 -186.5z" />
<glyph unicode="&#x42f;" horiz-adv-x="1445" d="M55 0q83 239 162 387q69 128 131 178q56 44 152 60q-375 15 -375 387q0 415 397 415h744v-1427h-271v545h-227q-96 0 -152 -39q-122 -78 -249 -506h-312zM426 977q0 -209 166 -209h403v430h-409q-160 0 -160 -221z" />
<glyph unicode="&#x430;" horiz-adv-x="1146" d="M100 319q0 206 101 273q101 70 309 70q110 0 258 -29q0 137 -49 180t-211 43q-182 0 -315 -47l-48 209q207 55 416 55q237 0 344 -90q107 -88 107 -315v-615q-207 -82 -471 -82q-249 0 -346 72q-95 74 -95 276zM367 330q0 -106 36 -135q40 -29 156 -29q106 0 209 35v260 q-85 18 -207 18q-119 0 -156.5 -27t-37.5 -122z" />
<glyph unicode="&#x431;" horiz-adv-x="1177" d="M111 602q0 391 71 574q34 86 101 141q65 49 139.5 71t200.5 33q249 21 391 80v-225q-127 -57 -379 -72q-247 -15 -268 -299q89 123 282 123q215 0 318 -115q104 -113 104 -407q0 -303 -117 -420q-118 -115 -383 -115q-120 0 -199 27.5t-141 93.5q-120 135 -120 510z M369 502q0 -180 47.5 -251t161.5 -71q50 1 81 4.5t59 16t43 32.5t26.5 57.5t16.5 87t7 124.5q0 184 -47 246q-46 61 -172 61q-134 0 -180 -64q-43 -61 -43 -243z" />
<glyph unicode="&#x432;" horiz-adv-x="1187" d="M141 0v1042h629q161 0 226 -60t65 -189q0 -117 -51.5 -173.5t-186.5 -66.5q143 -4 202.5 -69.5t59.5 -198.5q0 -285 -307 -285h-637zM395 197h312q60 0 86 27.5t26 90.5q0 136 -119 136h-305v-254zM395 637h301q54 0 77.5 25t23.5 81q0 59 -22.5 81t-78.5 22h-301v-209z " />
<glyph unicode="&#x433;" horiz-adv-x="868" d="M141 0v1042h725v-221h-471v-821h-254z" />
<glyph unicode="&#x434;" horiz-adv-x="1329" d="M8 221h187q124 432 145 821h778v-821h201l-59 -510h-203v289h-787v-289h-204zM461 221h403v600h-293q-21 -260 -110 -600z" />
<glyph unicode="&#x435;" horiz-adv-x="1130" d="M104 526q0 292 119 419.5t367 127.5q134 0 216.5 -26.5t141.5 -92.5q61 -67 85 -187t18 -312h-680q3 -161 63 -215q63 -54 207 -54q151 0 293 43l41 -200q-171 -58 -365 -58q-243 0 -374 125q-132 126 -132 430zM373 649h428q-6 134 -47 178q-39 45 -154 45 q-119 0 -167 -47t-60 -176z" />
<glyph unicode="&#x436;" horiz-adv-x="1636" d="M4 0q94 213 174 340q77 123 123 162q46 37 107 61q-51 42 -157 173.5t-222 305.5h293q218 -316 368 -495v495h254v-495q150 176 371 495h293q-121 -175 -226 -306.5t-153 -172.5q47 -20 80 -44.5t80 -78.5q94 -105 241 -440h-289q-115 251 -206 352q-93 103 -191 131 v-483h-254v483q-97 -28 -190 -131q-95 -106 -205 -352h-291z" />
<glyph unicode="&#x437;" horiz-adv-x="1056" d="M63 10l54 228q142 -50 327 -50q144 0 194 29.5t50 108.5q0 71 -51 100t-174 29h-160v190h160q116 0 159.5 22t43.5 83q0 60 -47 83t-175 23q-183 0 -319 -45l-53 221q181 41 377 41q270 0 376 -59q107 -58 107 -209q0 -121 -56.5 -181.5t-193.5 -72.5q146 -7 211 -75.5 t65 -199.5q0 -175 -116 -239q-117 -66 -393 -66q-220 0 -386 39z" />
<glyph unicode="&#x438;" horiz-adv-x="1214" d="M141 0v1042h254v-663q180 226 424 663h254v-1042h-254v637q-176 -316 -424 -637h-254z" />
<glyph unicode="&#x439;" horiz-adv-x="1214" d="M141 0v1042h254v-663q180 226 424 663h254v-1042h-254v637q-176 -316 -424 -637h-254zM301 1427h174q0 -67 30.5 -92.5t104.5 -25.5t106 26t32 92h163q0 -280 -307 -280q-303 0 -303 280z" />
<glyph unicode="&#x43a;" horiz-adv-x="1128" d="M141 0v1042h254v-501q162 180 404 501h301q-293 -394 -395 -477q61 -24 106 -63q51 -39 132.5 -167.5t180.5 -334.5h-297q-122 256 -221 358q-98 101 -211 125v-483h-254z" />
<glyph unicode="&#x43b;" horiz-adv-x="1171" d="M27 227q101 0 168 211t86 604h747v-1042h-254v821h-264q-21 -342 -113 -579q-48 -129 -132 -200t-193 -71z" />
<glyph unicode="&#x43c;" horiz-adv-x="1542" d="M141 0v1042h371q123 -258 270 -620q114 301 265 620h354v-1042h-252v760q-136 -294 -287 -699h-190q-184 496 -279 699v-760h-252z" />
<glyph unicode="&#x43d;" horiz-adv-x="1202" d="M141 0v1042h254v-383h410v383h254v-1042h-254v442h-410v-442h-254z" />
<glyph unicode="&#x43e;" d="M104 526q0 307 119 426q121 121 377 121q260 0 381 -121q119 -119 119 -426q0 -312 -119 -434q-121 -121 -381 -121q-258 0 -379 121q-117 123 -117 434zM367 522q0 -210 47 -278q51 -66 186 -66q140 0 188 66q50 68 50 278q-2 79 -6.5 130.5t-16 92t-26.5 62t-43.5 35.5 t-61 18.5t-84.5 5.5q-141 0 -186 -63q-47 -65 -47 -281z" />
<glyph unicode="&#x43f;" horiz-adv-x="1202" d="M141 0v1042h918v-1042h-254v821h-410v-821h-254z" />
<glyph unicode="&#x440;" d="M141 -393v1388q191 78 457 78q265 0 383 -121q117 -120 117 -430q0 -301 -115 -428q-114 -123 -338 -123q-127 0 -250 60v-424h-254zM395 287q0 -44 59 -72.5t146 -28.5q134 0 186 70t52 260q0 208 -52 272q-51 66 -188 66q-121 0 -203 -31v-536z" />
<glyph unicode="&#x441;" horiz-adv-x="962" d="M104 526q0 304 132 424q132 123 385 123q186 0 317 -49l-57 -217q-116 45 -242 45q-63 0 -103 -7t-73.5 -26t-52 -56.5t-29.5 -95t-14 -145.5q0 -197 61 -264q65 -65 211 -65q123 0 242 49l57 -217q-136 -54 -317 -54q-254 0 -385 125q-132 126 -132 430z" />
<glyph unicode="&#x442;" horiz-adv-x="993" d="M10 821v221h973v-221h-360v-821h-254v821h-359z" />
<glyph unicode="&#x443;" horiz-adv-x="1046" d="M0 1042h264q137 -344 258 -790q177 467 258 790h258q-239 -808 -557 -1435h-282q68 119 170 342q-168 606 -369 1093z" />
<glyph unicode="&#x444;" horiz-adv-x="1658" d="M104 526q0 286 138 406q140 122 460 137v383h254v-383q321 -15 461 -137q137 -119 137 -406q0 -289 -137 -411q-140 -125 -461 -140v-368h-254v368q-322 15 -460 138t-138 413zM367 522q0 -191 69 -260q73 -73 266 -82v682q-196 -9 -268 -78q-67 -67 -67 -262zM956 180 q192 9 265 82q71 71 71 260q0 194 -69 260q-71 71 -267 80v-682z" />
<glyph unicode="&#x445;" horiz-adv-x="1067" d="M12 0q158 187 406 520q-229 319 -404 522h303q111 -139 240 -319q133 181 215 319h283l-359 -514q228 -323 361 -528h-287q-79 131 -219 330q-156 -211 -256 -330h-283z" />
<glyph unicode="&#x446;" horiz-adv-x="1302" d="M141 0v1042h254v-821h410v821h254v-821h233l-59 -510h-205v289h-887z" />
<glyph unicode="&#x447;" horiz-adv-x="1138" d="M78 788v254h254v-233q0 -159 49 -211q50 -53 162 -53q84 0 141 25t57 67v405h254v-1042h-254v387q-138 -72 -286 -72q-131 0 -209 35q-168 82 -168 438z" />
<glyph unicode="&#x448;" horiz-adv-x="1757" d="M141 0v1042h254v-821h357v821h254v-821h354v821h254v-1042h-1473z" />
<glyph unicode="&#x449;" horiz-adv-x="1857" d="M141 0v1042h254v-821h357v821h254v-821h354v821h254v-821h233l-59 -510h-205v289h-1442z" />
<glyph unicode="&#x44a;" horiz-adv-x="1236" d="M10 821v221h455v-376h366q324 0 324 -330q0 -178 -78.5 -257t-245.5 -79h-620v821h-201zM465 188h307q117 0 117 144q0 73 -29.5 105t-91.5 32h-303v-281z" />
<glyph unicode="&#x44b;" horiz-adv-x="1589" d="M141 0v1042h254v-376h367q323 0 323 -330q0 -178 -78 -257t-245 -79h-621zM395 188h307q117 0 117 144q0 73 -29.5 105t-91.5 32h-303v-281zM1194 0v1042h254v-1042h-254z" />
<glyph unicode="&#x44c;" horiz-adv-x="1167" d="M141 0v1042h254v-376h367q323 0 323 -330q0 -178 -78 -257t-245 -79h-621zM395 188h307q117 0 117 144q0 73 -29.5 105t-91.5 32h-303v-281z" />
<glyph unicode="&#x44d;" horiz-adv-x="985" d="M49 25l55 202q107 -43 246 -43q133 0 195 60t69 211h-415v194h411q-17 120 -76 164.5t-184 44.5q-155 0 -246 -39l-55 205q131 49 318 49q249 0 381 -123q133 -124 133 -424q0 -303 -133 -430q-131 -125 -381 -125q-182 0 -318 54z" />
<glyph unicode="&#x44e;" horiz-adv-x="1736" d="M141 0v1042h254v-383h269q24 225 138 319.5t341 94.5q252 0 370 -121q119 -119 119 -426q0 -310 -119 -432q-117 -123 -370 -123q-233 0 -350 105q-116 107 -131 366h-267v-442h-254zM918 522q0 -210 47 -278t178 -68q133 0 180 68q49 67 49 278q0 216 -47 281t-182 65 q-131 0 -178 -65t-47 -281z" />
<glyph unicode="&#x44f;" horiz-adv-x="1214" d="M51 0q109 263 180 346q78 90 191 105q-150 6 -223.5 82t-73.5 204q0 305 330 305h618v-1042h-254v371h-157q-109 0 -175 -72q-61 -67 -145 -299h-291zM399 707q0 -136 129 -136h291v267h-297q-123 0 -123 -131z" />
<glyph unicode="&#x451;" horiz-adv-x="1130" d="M104 526q0 292 119 419.5t367 127.5q134 0 216.5 -26.5t141.5 -92.5q61 -67 85 -187t18 -312h-680q3 -161 63 -215q63 -54 207 -54q151 0 293 43l41 -200q-171 -58 -365 -58q-243 0 -374 125q-132 126 -132 430zM252 1282q0 71 24 92t97 21q74 0 98.5 -21.5t24.5 -91.5 q0 -77 -25 -102t-98 -25t-97 24.5t-24 102.5zM373 649h428q-6 134 -47 178q-39 45 -154 45q-119 0 -167 -47t-60 -176zM688 1282q0 71 24 92t99 21q73 0 97 -21t24 -92q0 -76 -25 -101.5t-96 -25.5q-75 0 -99 24.5t-24 102.5z" />
<glyph unicode="&#x452;" horiz-adv-x="1179" d="M37 1190v178h104v111h254v-111h211v-178h-211v-213q129 72 287 72q108 0 174.5 -24.5t118.5 -88.5q53 -62 76.5 -179t23.5 -304q0 -342 -96 -551q-94 -205 -229 -277l-181 174q107 58 172 203q64 143 64 442q-2 84 -6.5 140t-15 98.5t-24 66t-38.5 38t-52.5 19t-72.5 5.5 q-82 0 -139.5 -24t-61.5 -64v-723h-254v1190h-104z" />
<glyph unicode="&#x453;" horiz-adv-x="868" d="M141 0v1042h725v-219h-471v-823h-254zM330 1163l248 264h272l-297 -264h-223z" />
<glyph unicode="&#x454;" horiz-adv-x="985" d="M104 526q0 299 134 424q132 123 380 123q187 0 318 -49l-55 -205q-91 39 -246 39q-125 0 -184 -44.5t-76 -164.5h411v-194h-415q7 -151 69 -211t195 -60q139 0 246 43l55 -202q-136 -54 -315 -54q-252 0 -383 125q-134 128 -134 430z" />
<glyph unicode="&#x455;" horiz-adv-x="1005" d="M92 727q0 185 112 265.5t335 80.5q182 0 350 -57l-55 -199q-148 49 -304 49q-108 0 -148 -24t-40 -97q0 -54 44 -77t171 -35q197 -20 280 -91t83 -223q0 -193 -115 -270q-116 -78 -332 -78t-373 56l54 200q137 -49 309 -49q116 0 160.5 25.5t44.5 101.5q0 58 -48 85.5 t-176 39.5q-187 14 -269.5 80.5t-82.5 216.5z" />
<glyph unicode="&#x456;" horiz-adv-x="536" d="M123 1352q0 77 29 101t118 24q88 0 117 -24t29 -101q0 -87 -29.5 -114.5t-116.5 -27.5q-89 0 -118 27.5t-29 114.5zM141 0v1042h254v-1042h-254z" />
<glyph unicode="&#x457;" horiz-adv-x="536" d="M-72 1282q0 71 24 92t97 21q74 0 98.5 -21.5t24.5 -91.5q0 -77 -25 -102t-98 -25t-97 24.5t-24 102.5zM141 0v1042h254v-1042h-254zM365 1282q0 71 23.5 92t98.5 21q73 0 97 -21t24 -92q0 -76 -25 -101.5t-96 -25.5q-74 0 -98 24t-24 103z" />
<glyph unicode="&#x458;" horiz-adv-x="536" d="M-33 -205q93 0 133.5 40t40.5 138v1069h254v-1062q0 -224 -102 -310q-103 -86 -326 -86v211zM123 1352q0 77 29 101t118 24q88 0 117 -24t29 -101q0 -87 -29.5 -114.5t-116.5 -27.5q-89 0 -118 27.5t-29 114.5z" />
<glyph unicode="&#x459;" horiz-adv-x="1814" d="M27 227q101 0 168 211t86 604h747v-376h367q323 0 323 -330q0 -178 -78 -257t-245 -79h-621v821h-264q-21 -342 -113 -579q-48 -129 -132 -200t-193 -71zM1028 188h307q117 0 117 144q0 73 -29.5 105t-91.5 32h-303v-281z" />
<glyph unicode="&#x45a;" horiz-adv-x="1845" d="M141 0v1042h254v-376h410v376h254v-376h366q324 0 324 -330q0 -178 -78.5 -257t-245.5 -79h-620v469h-410v-469h-254zM1059 188h307q117 0 117 146q0 72 -29 103.5t-92 31.5h-303v-281z" />
<glyph unicode="&#x45b;" horiz-adv-x="1193" d="M37 1190v178h104v111h254v-111h211v-178h-211v-189q141 72 287 72q132 0 207 -37q170 -77 170 -436v-600h-254v580q0 153 -48 208.5t-161 55.5q-84 0 -142.5 -26t-58.5 -66v-752h-254v1190h-104z" />
<glyph unicode="&#x45c;" horiz-adv-x="1128" d="M141 0v1042h254v-501q162 180 404 501h301q-293 -394 -395 -477q61 -24 106 -63q51 -39 132.5 -167.5t180.5 -334.5h-297q-122 256 -221 358q-98 101 -211 125v-483h-254zM438 1163l248 264h272l-296 -264h-224z" />
<glyph unicode="&#x45e;" horiz-adv-x="1046" d="M0 1042h264q137 -344 258 -790q177 467 258 790h258q-239 -808 -557 -1435h-282q68 119 170 342q-168 606 -369 1093zM219 1432h174q0 -68 30.5 -93.5t104.5 -25.5t106 26.5t32 92.5h163q0 -281 -307 -281q-303 0 -303 281z" />
<glyph unicode="&#x45f;" horiz-adv-x="1202" d="M141 0v1042h254v-821h410v821h254v-1042h-320l-43 -365h-180l-43 365h-332z" />
<glyph unicode="&#x490;" horiz-adv-x="1114" d="M180 0v1427h717l68 365h180v-598h-694v-1194h-271z" />
<glyph unicode="&#x491;" horiz-adv-x="868" d="M141 0v1042h504l62 336h159v-557h-471v-821h-254z" />
<glyph unicode="&#x1e80;" horiz-adv-x="1996" d="M-4 1427h295q164 -492 307 -1091q215 714 287 1091h250q210 -749 280 -1091q174 542 297 1091h279q-181 -743 -414 -1427h-344q-79 424 -223 979q-76 -376 -262 -979h-342q-226 907 -410 1427zM659 1794h281l277 -264h-234z" />
<glyph unicode="&#x1e81;" horiz-adv-x="1699" d="M0 1042h268q137 -370 238 -782q54 158 123 395q53 184 102 387h248q120 -358 211 -782q170 468 242 782h258q-148 -532 -357 -1042h-315q-77 394 -168 698q-75 -340 -201 -698h-313q-156 563 -336 1042zM567 1427h271l249 -264h-225z" />
<glyph unicode="&#x1e82;" horiz-adv-x="1996" d="M-4 1427h295q164 -492 307 -1091q215 714 287 1091h250q210 -749 280 -1091q174 542 297 1091h279q-181 -743 -414 -1427h-344q-79 424 -223 979q-76 -376 -262 -979h-342q-226 907 -410 1427zM786 1530l265 264h280l-323 -264h-222z" />
<glyph unicode="&#x1e83;" horiz-adv-x="1648" />
<glyph unicode="&#x1e84;" horiz-adv-x="1996" d="M-4 1427h295q164 -492 307 -1091q215 714 287 1091h250q210 -749 280 -1091q174 542 297 1091h279q-181 -743 -414 -1427h-344q-79 424 -223 979q-76 -376 -262 -979h-342q-226 907 -410 1427zM670 1655q0 71 24.5 92.5t98.5 21.5q73 0 96.5 -21.5t23.5 -92.5 q0 -77 -23.5 -101t-96.5 -24t-98 24t-25 101zM1106 1655q0 71 24 92.5t99 21.5q73 0 97 -21.5t24 -92.5q0 -77 -24 -101t-97 -24q-74 0 -98.5 24t-24.5 101z" />
<glyph unicode="&#x1e85;" horiz-adv-x="1699" d="M0 1042h268q137 -370 238 -782q54 158 123 395q53 184 102 387h248q120 -358 211 -782q170 468 242 782h258q-148 -532 -357 -1042h-315q-77 394 -168 698q-75 -340 -201 -698h-313q-156 563 -336 1042zM508 1282q0 71 24 92t97 21q74 0 98.5 -21.5t24.5 -91.5 q0 -77 -25 -102t-98 -25t-97 24.5t-24 102.5zM944 1282q0 71 24 92t99 21q73 0 97 -21t24 -92q0 -76 -25 -101.5t-96 -25.5q-75 0 -99 24.5t-24 102.5z" />
<glyph unicode="&#x1ea0;" horiz-adv-x="1396" d="M-20 0q236 736 518 1427h424q257 -813 514 -1427h-299q-121 307 -138 356h-624l-111 -356h-284zM446 588h476q-112 315 -199 610h-55q-103 -265 -222 -610zM573 -240q0 73 25 96t100 23q76 0 101.5 -23t25.5 -96q0 -81 -25.5 -106t-101.5 -25q-74 0 -99.5 26t-25.5 105z " />
<glyph unicode="&#x1ea1;" horiz-adv-x="1146" d="M100 319q0 206 101 273q101 70 309 70q110 0 258 -29q0 139 -49 182q-48 45 -211 45q-175 0 -315 -51l-48 209q207 55 416 55q237 0 344 -90q107 -88 107 -315v-615q-207 -82 -471 -82q-249 0 -346 72q-95 74 -95 276zM367 330q0 -106 36 -135q40 -29 156 -29 q106 0 209 35v260q-85 18 -207 18q-119 0 -156.5 -27t-37.5 -122zM449 -240q0 73 25 96t99 23q76 0 101.5 -23t25.5 -96q0 -81 -25.5 -106t-101.5 -25q-74 0 -99 26t-25 105z" />
<glyph unicode="&#x1ea2;" horiz-adv-x="1396" d="M-20 0q236 736 518 1427h424q257 -813 514 -1427h-299q-121 307 -138 356h-624l-111 -356h-284zM440 1788q89 59 250 59q140 0 197 -36t57 -117q0 -146 -237 -217h-97q96 54 126 86t30 82q0 36 -21.5 50.5t-80.5 14.5q-96 0 -156 -45zM446 588h476q-112 315 -199 610h-55 q-103 -265 -222 -610z" />
<glyph unicode="&#x1ea3;" horiz-adv-x="1146" d="M100 319q0 206 101 273q101 70 309 70q110 0 258 -29q0 139 -49 182q-48 45 -211 45q-175 0 -315 -51l-48 209q207 55 416 55q237 0 344 -90q107 -88 107 -315v-615q-207 -82 -471 -82q-249 0 -346 72q-95 74 -95 276zM324 1460q89 62 249 62q139 0 195.5 -37t56.5 -123 q0 -152 -235 -225h-96q98 54 124 88q31 36 31 86q0 38 -21.5 53.5t-80.5 15.5q-91 0 -156 -47zM367 330q0 -106 36 -135q40 -29 156 -29q106 0 209 35v260q-85 18 -207 18q-119 0 -156.5 -27t-37.5 -122z" />
<glyph unicode="&#x1ea4;" horiz-adv-x="1396" d="M-20 0q236 736 518 1427h424q257 -813 514 -1427h-299q-121 307 -138 356h-624l-111 -356h-284zM330 1487l245 182h246l254 -182h-233l-146 110l-141 -110h-225zM446 588h476q-112 315 -199 610h-55q-103 -265 -222 -610zM467 1702l262 196h279l-322 -196h-219z" />
<glyph unicode="&#x1ea5;" horiz-adv-x="1146" d="M100 319q0 206 101 273q101 70 309 70q110 0 258 -29q0 139 -49 182q-48 45 -211 45q-175 0 -315 -51l-48 209q207 55 416 55q237 0 344 -90q107 -88 107 -315v-615q-207 -82 -471 -82q-249 0 -346 72q-95 74 -95 276zM199 1163l250 264h249l258 -264h-239l-146 156 l-141 -156h-231zM346 1530l264 264h281l-324 -264h-221zM367 330q0 -106 36 -135q40 -29 156 -29q106 0 209 35v260q-85 18 -207 18q-119 0 -156.5 -27t-37.5 -122z" />
<glyph unicode="&#x1ea6;" horiz-adv-x="1396" d="M-20 0q236 736 518 1427h424q257 -813 514 -1427h-299q-121 307 -138 356h-624l-111 -356h-284zM330 1487l245 182h246l254 -182h-233l-146 110l-141 -110h-225zM399 1898h273l270 -196h-227zM446 588h476q-112 315 -199 610h-55q-103 -265 -222 -610z" />
<glyph unicode="&#x1ea7;" horiz-adv-x="1146" d="M100 319q0 206 101 273q101 70 309 70q110 0 258 -29q0 139 -49 182q-48 45 -211 45q-175 0 -315 -51l-48 209q207 55 416 55q237 0 344 -90q107 -88 107 -315v-615q-207 -82 -471 -82q-249 0 -346 72q-95 74 -95 276zM199 1163l250 264h249l258 -264h-239l-146 156 l-141 -156h-231zM258 1794h281l276 -264h-233zM367 330q0 -106 36 -135q40 -29 156 -29q106 0 209 35v260q-85 18 -207 18q-119 0 -156.5 -27t-37.5 -122z" />
<glyph unicode="&#x1ea8;" horiz-adv-x="1396" d="M-20 0q236 736 518 1427h424q257 -813 514 -1427h-299q-121 307 -138 356h-624l-111 -356h-284zM330 1487l245 182h246l254 -182h-233l-146 110l-141 -110h-225zM446 588h476q-112 315 -199 610h-55q-103 -265 -222 -610zM449 1944q89 47 253 47q140 0 198 -28.5 t58 -92.5q0 -116 -239 -168h-98q97 41 127 66.5t30 64.5q0 27 -22 39t-80 12q-95 0 -160 -35z" />
<glyph unicode="&#x1ea9;" horiz-adv-x="1146" d="M100 319q0 206 101 273q101 70 309 70q110 0 258 -29q0 139 -49 182q-48 45 -211 45q-175 0 -315 -51l-48 209q207 55 416 55q237 0 344 -90q107 -88 107 -315v-615q-207 -82 -471 -82q-249 0 -346 72q-95 74 -95 276zM199 1163l250 264h249l258 -264h-239l-146 156 l-141 -156h-231zM324 1784q88 61 249 61q139 0 195.5 -36.5t56.5 -122.5q0 -153 -235 -226h-96q98 54 124 88q31 36 31 86q0 38 -22 54t-80 16q-91 0 -156 -47zM367 330q0 -106 36 -135q40 -29 156 -29q106 0 209 35v260q-85 18 -207 18q-119 0 -156.5 -27t-37.5 -122z" />
<glyph unicode="&#x1eaa;" horiz-adv-x="1396" d="M-20 0q236 736 518 1427h424q257 -813 514 -1427h-299q-121 307 -138 356h-624l-111 -356h-284zM326 1792q94 125 217 125q73 0 166 -41t133 -41q64 0 108 90l123 -80q-32 -68 -95 -107.5t-147 -39.5q-65 0 -155 43q-87 43 -133 43q-64 0 -105 -80zM330 1487l245 182h246 l254 -182h-233l-146 110l-141 -110h-225zM446 588h476q-112 315 -199 610h-55q-103 -265 -222 -610z" />
<glyph unicode="&#x1eab;" horiz-adv-x="1146" d="M100 319q0 206 101 273q101 70 309 70q110 0 258 -29q0 139 -49 182q-48 45 -211 45q-175 0 -315 -51l-48 209q207 55 416 55q237 0 344 -90q107 -88 107 -315v-615q-207 -82 -471 -82q-249 0 -346 72q-95 74 -95 276zM199 1163l250 264h249l258 -264h-239l-146 156 l-141 -156h-231zM225 1628q91 162 219 162q76 0 168 -53q97 -54 136 -54q37 0 61 25.5t49 91.5l125 -102q-32 -87 -97 -139t-149 -52q-63 0 -155 56q-91 55 -138 55q-64 0 -104 -102zM367 330q0 -106 36 -135q40 -29 156 -29q106 0 209 35v260q-85 18 -207 18 q-119 0 -156.5 -27t-37.5 -122z" />
<glyph unicode="&#x1eac;" horiz-adv-x="1396" d="M-20 0q236 736 518 1427h424q257 -813 514 -1427h-299q-121 307 -138 356h-624l-111 -356h-284zM319 1530l250 264h250l258 -264h-237l-148 160l-143 -160h-230zM446 588h476q-112 315 -199 610h-55q-103 -265 -222 -610zM573 -240q0 73 25 96t100 23q76 0 101.5 -23 t25.5 -96q0 -81 -25.5 -106t-101.5 -25q-74 0 -99.5 26t-25.5 105z" />
<glyph unicode="&#x1ead;" horiz-adv-x="1146" d="M100 319q0 206 101 273q101 70 309 70q110 0 258 -29q0 139 -49 182q-48 45 -211 45q-175 0 -315 -51l-48 209q207 55 416 55q237 0 344 -90q107 -88 107 -315v-615q-207 -82 -471 -82q-249 0 -346 72q-95 74 -95 276zM195 1163l249 264h250l258 -264h-239l-146 156 l-141 -156h-231zM367 330q0 -106 36 -135q40 -29 156 -29q106 0 209 35v260q-85 18 -207 18q-119 0 -156.5 -27t-37.5 -122zM449 -240q0 73 25 96t99 23q76 0 101.5 -23t25.5 -96q0 -81 -25.5 -106t-101.5 -25q-74 0 -99 26t-25 105z" />
<glyph unicode="&#x1eae;" horiz-adv-x="1396" d="M-20 0q236 736 518 1427h424q257 -813 514 -1427h-299q-121 307 -138 356h-624l-111 -356h-284zM383 1673h180q0 -44 33.5 -62t108.5 -18q74 0 107.5 18.5t33.5 61.5h170q0 -188 -320 -188q-313 0 -313 188zM446 588h476q-112 315 -199 610h-55q-103 -265 -222 -610z M502 1702l262 196h278l-321 -196h-219z" />
<glyph unicode="&#x1eaf;" horiz-adv-x="1146" d="M100 319q0 206 101 273q101 70 309 70q110 0 258 -29q0 139 -49 182q-48 45 -211 45q-175 0 -315 -51l-48 209q207 55 416 55q237 0 344 -90q107 -88 107 -315v-615q-207 -82 -471 -82q-249 0 -346 72q-95 74 -95 276zM262 1427h174q0 -67 30.5 -92.5t104.5 -25.5t106 26 t32 92h163q0 -280 -307 -280q-303 0 -303 280zM346 1530l264 264h281l-324 -264h-221zM367 330q0 -106 36 -135q40 -29 156 -29q106 0 209 35v260q-85 18 -207 18q-119 0 -156.5 -27t-37.5 -122z" />
<glyph unicode="&#x1eb0;" horiz-adv-x="1396" d="M-20 0q236 736 518 1427h424q257 -813 514 -1427h-299q-121 307 -138 356h-624l-111 -356h-284zM369 1898h272l270 -196h-227zM383 1673h180q0 -44 33.5 -62t108.5 -18q74 0 107.5 18.5t33.5 61.5h170q0 -188 -320 -188q-313 0 -313 188zM446 588h476q-112 315 -199 610 h-55q-103 -265 -222 -610z" />
<glyph unicode="&#x1eb1;" horiz-adv-x="1146" d="M100 319q0 206 101 273q101 70 309 70q110 0 258 -29q0 139 -49 182q-48 45 -211 45q-175 0 -315 -51l-48 209q207 55 416 55q237 0 344 -90q107 -88 107 -315v-615q-207 -82 -471 -82q-249 0 -346 72q-95 74 -95 276zM256 1794h281l276 -264h-233zM262 1427h174 q0 -67 30.5 -92.5t104.5 -25.5t106 26t32 92h163q0 -280 -307 -280q-303 0 -303 280zM367 330q0 -106 36 -135q40 -29 156 -29q106 0 209 35v260q-85 18 -207 18q-119 0 -156.5 -27t-37.5 -122z" />
<glyph unicode="&#x1eb2;" horiz-adv-x="1396" d="M-20 0q236 736 518 1427h424q257 -813 514 -1427h-299q-121 307 -138 356h-624l-111 -356h-284zM383 1673h180q0 -44 33.5 -62t108.5 -18q74 0 107.5 18.5t33.5 61.5h170q0 -188 -320 -188q-313 0 -313 188zM446 588h476q-112 315 -199 610h-55q-103 -265 -222 -610z M449 1944q89 47 253 47q140 0 198 -28.5t58 -92.5q0 -116 -239 -168h-98q97 41 127 66.5t30 64.5q0 27 -22 39t-80 12q-95 0 -160 -35z" />
<glyph unicode="&#x1eb3;" horiz-adv-x="1146" d="M100 319q0 206 101 273q101 70 309 70q110 0 258 -29q0 139 -49 182q-48 45 -211 45q-175 0 -315 -51l-48 209q207 55 416 55q237 0 344 -90q107 -88 107 -315v-615q-207 -82 -471 -82q-249 0 -346 72q-95 74 -95 276zM262 1427h174q0 -67 30.5 -92.5t104.5 -25.5t106 26 t32 92h163q0 -280 -307 -280q-303 0 -303 280zM317 1767q89 62 250 62q139 0 195.5 -37t56.5 -123q0 -152 -235 -225h-97q99 55 125 88q31 36 31 86q0 38 -22 54t-80 16q-89 0 -156 -48zM367 330q0 -106 36 -135q40 -29 156 -29q106 0 209 35v260q-85 18 -207 18 q-119 0 -156.5 -27t-37.5 -122z" />
<glyph unicode="&#x1eb4;" horiz-adv-x="1396" d="M-20 0q236 736 518 1427h424q257 -813 514 -1427h-299q-121 307 -138 356h-624l-111 -356h-284zM326 1792q94 125 217 125q73 0 166 -41t133 -41q64 0 108 90l123 -80q-32 -68 -95 -107.5t-147 -39.5q-65 0 -155 43q-87 43 -133 43q-64 0 -105 -80zM383 1673h180 q0 -44 33.5 -62t108.5 -18q74 0 107.5 18.5t33.5 61.5h170q0 -188 -320 -188q-313 0 -313 188zM446 588h476q-112 315 -199 610h-55q-103 -265 -222 -610z" />
<glyph unicode="&#x1eb5;" horiz-adv-x="1146" d="M100 319q0 206 101 273q101 70 309 70q110 0 258 -29q0 139 -49 182q-48 45 -211 45q-175 0 -315 -51l-48 209q207 55 416 55q237 0 344 -90q107 -88 107 -315v-615q-207 -82 -471 -82q-249 0 -346 72q-95 74 -95 276zM197 1628q91 162 219 162q76 0 168 -53 q97 -54 135 -54q37 0 61 25.5t49 91.5l125 -102q-32 -87 -96.5 -139t-148.5 -52q-64 0 -156 56q-91 55 -137 55q-64 0 -105 -102zM262 1427h174q0 -67 30.5 -92.5t104.5 -25.5t106 26t32 92h163q0 -280 -307 -280q-303 0 -303 280zM367 330q0 -106 36 -135q40 -29 156 -29 q106 0 209 35v260q-85 18 -207 18q-119 0 -156.5 -27t-37.5 -122z" />
<glyph unicode="&#x1eb6;" horiz-adv-x="1396" d="M-20 0q236 736 518 1427h424q257 -813 514 -1427h-299q-121 307 -138 356h-624l-111 -356h-284zM393 1784h174q0 -68 30.5 -93.5t104.5 -25.5t106 26.5t32 92.5h164q0 -281 -308 -281q-303 0 -303 281zM446 588h476q-112 315 -199 610h-55q-103 -265 -222 -610zM573 -240 q0 73 25 96t100 23q76 0 101.5 -23t25.5 -96q0 -81 -25.5 -106t-101.5 -25q-74 0 -99.5 26t-25.5 105z" />
<glyph unicode="&#x1eb7;" horiz-adv-x="1146" d="M100 319q0 206 101 273q101 70 309 70q110 0 258 -29q0 139 -49 182q-48 45 -211 45q-175 0 -315 -51l-48 209q207 55 416 55q237 0 344 -90q107 -88 107 -315v-615q-207 -82 -471 -82q-249 0 -346 72q-95 74 -95 276zM266 1427h174q0 -67 30.5 -92.5t104.5 -25.5t106 26 t32 92h164q0 -280 -308 -280q-303 0 -303 280zM367 330q0 -106 36 -135q40 -29 156 -29q106 0 209 35v260q-85 18 -207 18q-119 0 -156.5 -27t-37.5 -122zM438 -240q0 73 25 96t100 23q76 0 101.5 -23t25.5 -96q0 -81 -25.5 -106t-101.5 -25q-74 0 -99.5 26t-25.5 105z" />
<glyph unicode="&#x1eb8;" horiz-adv-x="1269" d="M180 0v1427h1037v-233h-766v-330h546v-231h-546v-400h766v-233h-1037zM551 -240q0 73 25 96t100 23q76 0 101.5 -23t25.5 -96q0 -81 -25.5 -106t-101.5 -25q-74 0 -99.5 26t-25.5 105z" />
<glyph unicode="&#x1eb9;" horiz-adv-x="1130" d="M104 526q0 292 119 419.5t367 127.5q134 0 216.5 -26.5t141.5 -92.5q61 -67 85 -187t18 -312h-680q3 -161 63 -215q63 -54 207 -54q151 0 293 43l41 -200q-171 -58 -365 -58q-243 0 -374 125q-132 126 -132 430zM373 649h428q-6 134 -47 178q-39 45 -154 45 q-119 0 -167 -47t-60 -176zM465 -240q0 73 25 96t100 23q76 0 101.5 -23t25.5 -96q0 -81 -25.5 -106t-101.5 -25q-74 0 -99.5 26t-25.5 105z" />
<glyph unicode="&#x1eba;" horiz-adv-x="1269" d="M180 0v1427h1037v-233h-766v-330h546v-231h-546v-400h766v-233h-1037zM457 1788q89 59 250 59q139 0 196.5 -36t57.5 -117q0 -146 -238 -217h-96q96 54 125.5 86t29.5 82q0 36 -21.5 50.5t-80.5 14.5q-96 0 -156 -45z" />
<glyph unicode="&#x1ebb;" horiz-adv-x="1130" d="M104 526q0 292 119 419.5t367 127.5q134 0 216.5 -26.5t141.5 -92.5q61 -67 85 -187t18 -312h-680q3 -161 63 -215q63 -54 207 -54q151 0 293 43l41 -200q-171 -58 -365 -58q-243 0 -374 125q-132 126 -132 430zM328 1460q89 62 250 62q139 0 195 -37t56 -123 q0 -152 -235 -225h-96q99 55 125 88q30 35 30 86q0 38 -21.5 53.5t-80.5 15.5q-91 0 -156 -47zM373 649h428q-6 134 -47 178q-39 45 -154 45q-119 0 -167 -47t-60 -176z" />
<glyph unicode="&#x1ebc;" horiz-adv-x="1269" d="M180 0v1427h1037v-233h-766v-330h546v-231h-546v-400h766v-233h-1037zM334 1628q91 162 219 162q76 0 168 -53q97 -54 135 -54q37 0 61.5 26t49.5 91l125 -102q-32 -87 -97 -139t-149 -52q-64 0 -156 56q-91 55 -137 55q-64 0 -104 -102z" />
<glyph unicode="&#x1ebd;" horiz-adv-x="1130" d="M104 526q0 292 119 419.5t367 127.5q134 0 216.5 -26.5t141.5 -92.5q61 -67 85 -187t18 -312h-680q3 -161 63 -215q63 -54 207 -54q151 0 293 43l41 -200q-171 -58 -365 -58q-243 0 -374 125q-132 126 -132 430zM221 1262q94 165 223 165q77 0 162 -55q86 -53 129 -53 q37 0 60.5 26t48.5 93l127 -103q-67 -190 -240 -190q-64 0 -153 53q-88 55 -136 55q-63 0 -106 -104zM373 649h428q-6 134 -47 178q-39 45 -154 45q-119 0 -167 -47t-60 -176z" />
<glyph unicode="&#x1ebe;" horiz-adv-x="1269" d="M180 0v1427h1037v-233h-766v-330h546v-231h-546v-400h766v-233h-1037zM332 1487l246 182h245l254 -182h-233l-146 110l-141 -110h-225zM469 1702l262 196h279l-322 -196h-219z" />
<glyph unicode="&#x1ebf;" horiz-adv-x="1130" d="M104 526q0 292 119 419.5t367 127.5q134 0 216.5 -26.5t141.5 -92.5q61 -67 85 -187t18 -312h-680q3 -161 63 -215q63 -54 207 -54q151 0 293 43l41 -200q-171 -58 -365 -58q-243 0 -374 125q-132 126 -132 430zM211 1163l250 264h250l258 -264h-240l-145 156l-142 -156 h-231zM358 1530l265 264h280l-323 -264h-222zM373 649h428q-6 134 -47 178q-39 45 -154 45q-119 0 -167 -47t-60 -176z" />
<glyph unicode="&#x1ec0;" horiz-adv-x="1269" d="M180 0v1427h1037v-233h-766v-330h546v-231h-546v-400h766v-233h-1037zM324 1487l245 182h246l254 -182h-233l-146 110l-141 -110h-225zM393 1898h273l270 -196h-227z" />
<glyph unicode="&#x1ec1;" horiz-adv-x="1130" d="M104 526q0 292 119 419.5t367 127.5q134 0 216.5 -26.5t141.5 -92.5q61 -67 85 -187t18 -312h-680q3 -161 63 -215q63 -54 207 -54q151 0 293 43l41 -200q-171 -58 -365 -58q-243 0 -374 125q-132 126 -132 430zM217 1163l250 264h250l258 -264h-240l-145 156l-141 -156 h-232zM268 1794h281l276 -264h-233zM373 649h428q-6 134 -47 178q-39 45 -154 45q-119 0 -167 -47t-60 -176z" />
<glyph unicode="&#x1ec2;" horiz-adv-x="1269" d="M180 0v1427h1037v-233h-766v-330h546v-231h-546v-400h766v-233h-1037zM322 1487l245 182h246l254 -182h-233l-146 110l-141 -110h-225zM440 1944q89 47 254 47q140 0 198 -28.5t58 -92.5q0 -116 -239 -168h-99q97 41 127.5 66.5t30.5 64.5q0 27 -22 39t-80 12 q-95 0 -160 -35z" />
<glyph unicode="&#x1ec3;" horiz-adv-x="1130" d="M104 526q0 292 119 419.5t367 127.5q134 0 216.5 -26.5t141.5 -92.5q61 -67 85 -187t18 -312h-680q3 -161 63 -215q63 -54 207 -54q151 0 293 43l41 -200q-171 -58 -365 -58q-243 0 -374 125q-132 126 -132 430zM209 1163l250 264h250l258 -264h-240l-145 156l-142 -156 h-231zM334 1784q88 61 250 61q139 0 195.5 -36.5t56.5 -122.5q0 -153 -236 -226h-96q99 55 125 88q30 34 30 86q0 38 -22 54t-80 16q-91 0 -156 -47zM373 649h428q-6 134 -47 178q-39 45 -154 45q-119 0 -167 -47t-60 -176z" />
<glyph unicode="&#x1ec4;" horiz-adv-x="1269" d="M180 0v1427h1037v-233h-766v-330h546v-231h-546v-400h766v-233h-1037zM334 1792q94 125 217 125q73 0 166 -41t133 -41q64 0 108 90l123 -80q-32 -68 -94.5 -107.5t-146.5 -39.5q-66 0 -156 43q-87 43 -133 43q-64 0 -105 -80zM338 1487l246 182h245l254 -182h-233 l-145 110l-142 -110h-225z" />
<glyph unicode="&#x1ec5;" horiz-adv-x="1130" d="M104 526q0 292 119 419.5t367 127.5q134 0 216.5 -26.5t141.5 -92.5q61 -67 85 -187t18 -312h-680q3 -161 63 -215q63 -54 207 -54q151 0 293 43l41 -200q-171 -58 -365 -58q-243 0 -374 125q-132 126 -132 430zM215 1163l250 264h250l258 -264h-240l-145 156l-142 -156 h-231zM227 1628q91 162 219 162q76 0 168 -53q97 -54 136 -54q37 0 61 25.5t49 91.5l125 -102q-32 -87 -97 -139t-149 -52q-63 0 -155 56q-91 55 -138 55q-64 0 -104 -102zM373 649h428q-6 134 -47 178q-39 45 -154 45q-119 0 -167 -47t-60 -176z" />
<glyph unicode="&#x1ec6;" horiz-adv-x="1269" d="M180 0v1427h1037v-233h-766v-330h546v-231h-546v-400h766v-233h-1037zM328 1530l250 264h249l258 -264h-237l-148 160l-143 -160h-229zM582 -240q0 73 25 96t100 23q76 0 101.5 -23t25.5 -96q0 -81 -25.5 -106t-101.5 -25q-74 0 -99.5 26t-25.5 105z" />
<glyph unicode="&#x1ec7;" horiz-adv-x="1130" d="M104 526q0 292 119 419.5t367 127.5q134 0 216.5 -26.5t141.5 -92.5q61 -67 85 -187t18 -312h-680q3 -161 63 -215q63 -54 207 -54q151 0 293 43l41 -200q-171 -58 -365 -58q-243 0 -374 125q-132 126 -132 430zM197 1163l249 264h250l258 -264h-239l-146 156l-141 -156 h-231zM373 649h428q-6 134 -47 178q-39 45 -154 45q-119 0 -167 -47t-60 -176zM451 -240q0 73 25 96t99 23q76 0 101.5 -23t25.5 -96q0 -81 -25.5 -106t-101.5 -25q-74 0 -99 26t-25 105z" />
<glyph unicode="&#x1ec8;" horiz-adv-x="630" d="M66 1800q91 60 249 60q140 0 197 -36.5t57 -117.5q0 -146 -237 -217h-96q96 54 125.5 86t29.5 82q0 36 -21.5 50.5t-80.5 14.5q-96 0 -156 -45zM180 0v1427h271v-1427h-271z" />
<glyph unicode="&#x1ec9;" horiz-adv-x="536" d="M18 1460q89 62 250 62q139 0 195.5 -37t56.5 -123q0 -152 -235 -225h-97q99 55 125 88q31 36 31 86q0 38 -21.5 53.5t-80.5 15.5q-91 0 -156 -47zM141 0v1042h254v-1042h-254z" />
<glyph unicode="&#x1eca;" horiz-adv-x="630" d="M180 0v1427h271v-1427h-271zM193 -240q0 73 25 96t99 23q76 0 101.5 -23t25.5 -96q0 -81 -25.5 -106t-101.5 -25q-74 0 -99 26t-25 105z" />
<glyph unicode="&#x1ecb;" horiz-adv-x="536" d="M123 1352q0 77 29 101t118 24q88 0 117 -24t29 -101q0 -87 -29.5 -114.5t-116.5 -27.5q-89 0 -118 27.5t-29 114.5zM141 0v1042h254v-1042h-254zM145 -240q0 73 25 96t100 23q76 0 101.5 -23t25.5 -96q0 -81 -25.5 -106t-101.5 -25q-74 0 -99.5 26t-25.5 105z" />
<glyph unicode="&#x1ecc;" horiz-adv-x="1576" d="M109 727q0 428 170 586q90 81 209 115t300 34q182 0 302 -34.5t206 -114.5q170 -158 170 -586q0 -176 -27.5 -305t-79.5 -216t-136.5 -139t-189 -74t-245.5 -22q-181 0 -301.5 36t-207.5 120q-170 167 -170 600zM397 723q0 -111 7 -188t26 -135.5t45.5 -93t73 -55.5 t102 -28.5t137.5 -7.5t137.5 7.5t102 28.5t73.5 55.5t46 93t26 135.5t7 188q0 175 -16.5 265t-63.5 142q-45 53 -113 71t-199 18t-198 -18t-115 -71q-46 -52 -62 -143t-16 -264zM664 -240q0 73 25 96t99 23q76 0 101.5 -23t25.5 -96q0 -81 -25.5 -106t-101.5 -25 q-74 0 -99 26t-25 105z" />
<glyph unicode="&#x1ecd;" d="M104 526q0 307 119 426q121 121 377 121q260 0 381 -121q119 -119 119 -426q0 -312 -119 -434q-121 -121 -381 -121q-258 0 -379 121q-117 123 -117 434zM367 522q0 -210 47 -278q50 -68 186 -68q138 0 188 68t50 278q-2 79 -6.5 131t-16 92t-27 62.5t-44 36.5t-61 18.5 t-83.5 5.5q-139 0 -186 -65t-47 -281zM477 -240q0 73 25 96t100 23q76 0 101.5 -23t25.5 -96q0 -81 -25.5 -106t-101.5 -25q-74 0 -99.5 26t-25.5 105z" />
<glyph unicode="&#x1ece;" horiz-adv-x="1576" d="M109 727q0 428 170 586q90 81 209 115t300 34q182 0 302 -34.5t206 -114.5q170 -158 170 -586q0 -176 -27.5 -305t-79.5 -216t-136.5 -139t-189 -74t-245.5 -22q-181 0 -301.5 36t-207.5 120q-170 167 -170 600zM397 723q0 -111 7 -188t26 -135.5t45.5 -93t73 -55.5 t102 -28.5t137.5 -7.5t137.5 7.5t102 28.5t73.5 55.5t46 93t26 135.5t7 188q0 175 -16.5 265t-63.5 142q-45 53 -113 71t-199 18t-198 -18t-115 -71q-46 -52 -62 -143t-16 -264zM535 1812q91 60 249 60q138 0 196 -36.5t58 -117.5q0 -146 -237 -217h-96q96 54 125.5 86 t29.5 82q0 36 -21.5 51t-80.5 15q-96 0 -156 -45z" />
<glyph unicode="&#x1ecf;" d="M104 526q0 307 119 426q121 121 377 121q260 0 381 -121q119 -119 119 -426q0 -312 -119 -434q-121 -121 -381 -121q-258 0 -379 121q-117 123 -117 434zM352 1460q89 62 250 62q139 0 195.5 -37t56.5 -123q0 -152 -236 -225h-96q99 55 125 88q31 36 31 86q0 38 -22 53.5 t-81 15.5q-90 0 -155 -47zM367 522q0 -210 47 -278q50 -68 186 -68q138 0 188 68t50 278q-2 79 -6.5 131t-16 92t-27 62.5t-44 36.5t-61 18.5t-83.5 5.5q-139 0 -186 -65t-47 -281z" />
<glyph unicode="&#x1ed0;" horiz-adv-x="1576" d="M109 727q0 428 170 586q90 81 209 115t300 34q182 0 302 -34.5t206 -114.5q170 -158 170 -586q0 -176 -27.5 -305t-79.5 -216t-136.5 -139t-189 -74t-245.5 -22q-181 0 -301.5 36t-207.5 120q-170 167 -170 600zM397 723q0 -111 7 -188t26 -135.5t45.5 -93t73 -55.5 t102 -28.5t137.5 -7.5t137.5 7.5t102 28.5t73.5 55.5t46 93t26 135.5t7 188q0 175 -16.5 265t-63.5 142q-45 53 -113 71t-199 18t-198 -18t-115 -71q-46 -52 -62 -143t-16 -264zM416 1487l246 182h245l254 -182h-233l-146 110l-141 -110h-225zM553 1702l262 196h279 l-322 -196h-219z" />
<glyph unicode="&#x1ed1;" d="M104 526q0 307 119 426q121 121 377 121q260 0 381 -121q119 -119 119 -426q0 -312 -119 -434q-121 -121 -381 -121q-258 0 -379 121q-117 123 -117 434zM219 1163l250 264h250l258 -264h-240l-145 156l-141 -156h-232zM367 522q0 -210 47 -278q50 -68 186 -68 q138 0 188 68t50 278q-2 79 -6.5 131t-16 92t-27 62.5t-44 36.5t-61 18.5t-83.5 5.5q-139 0 -186 -65t-47 -281zM391 1530l264 264h281l-324 -264h-221z" />
<glyph unicode="&#x1ed2;" horiz-adv-x="1576" d="M109 727q0 428 170 586q90 81 209 115t300 34q182 0 302 -34.5t206 -114.5q170 -158 170 -586q0 -176 -27.5 -305t-79.5 -216t-136.5 -139t-189 -74t-245.5 -22q-181 0 -301.5 36t-207.5 120q-170 167 -170 600zM397 723q0 -111 7 -188t26 -135.5t45.5 -93t73 -55.5 t102 -28.5t137.5 -7.5t137.5 7.5t102 28.5t73.5 55.5t46 93t26 135.5t7 188q0 175 -16.5 265t-63.5 142q-45 53 -113 71t-199 18t-198 -18t-115 -71q-46 -52 -62 -143t-16 -264zM414 1487l245 182h246l254 -182h-233l-146 110l-141 -110h-225zM483 1898h273l270 -196h-227z " />
<glyph unicode="&#x1ed3;" d="M104 526q0 307 119 426q121 121 377 121q260 0 381 -121q119 -119 119 -426q0 -312 -119 -434q-121 -121 -381 -121q-258 0 -379 121q-117 123 -117 434zM213 1163l250 264h250l258 -264h-240l-145 156l-142 -156h-231zM272 1794h281l276 -264h-233zM367 522 q0 -210 47 -278q50 -68 186 -68q138 0 188 68t50 278q-2 79 -6.5 131t-16 92t-27 62.5t-44 36.5t-61 18.5t-83.5 5.5q-139 0 -186 -65t-47 -281z" />
<glyph unicode="&#x1ed4;" horiz-adv-x="1576" d="M109 727q0 428 170 586q90 81 209 115t300 34q182 0 302 -34.5t206 -114.5q170 -158 170 -586q0 -176 -27.5 -305t-79.5 -216t-136.5 -139t-189 -74t-245.5 -22q-181 0 -301.5 36t-207.5 120q-170 167 -170 600zM397 723q0 -111 7 -188t26 -135.5t45.5 -93t73 -55.5 t102 -28.5t137.5 -7.5t137.5 7.5t102 28.5t73.5 55.5t46 93t26 135.5t7 188q0 175 -16.5 265t-63.5 142q-45 53 -113 71t-199 18t-198 -18t-115 -71q-46 -52 -62 -143t-16 -264zM410 1487l245 182h246l254 -182h-233l-146 110l-141 -110h-225zM528 1944q89 47 254 47 q140 0 198 -28.5t58 -92.5q0 -116 -239 -168h-99q97 41 127.5 66.5t30.5 64.5q0 27 -22 39t-80 12q-95 0 -160 -35z" />
<glyph unicode="&#x1ed5;" d="M104 526q0 307 119 426q121 121 377 121q260 0 381 -121q119 -119 119 -426q0 -312 -119 -434q-121 -121 -381 -121q-258 0 -379 121q-117 123 -117 434zM231 1163l250 264h250l258 -264h-239l-146 156l-141 -156h-232zM356 1784q88 61 250 61q139 0 195.5 -36.5 t56.5 -122.5q0 -153 -235 -226h-97q99 55 125 88q31 36 31 86q0 38 -22 54t-80 16q-91 0 -156 -47zM367 522q0 -210 47 -278q50 -68 186 -68q138 0 188 68t50 278q-2 79 -6.5 131t-16 92t-27 62.5t-44 36.5t-61 18.5t-83.5 5.5q-139 0 -186 -65t-47 -281z" />
<glyph unicode="&#x1ed6;" horiz-adv-x="1576" d="M109 727q0 428 170 586q90 81 209 115t300 34q182 0 302 -34.5t206 -114.5q170 -158 170 -586q0 -176 -27.5 -305t-79.5 -216t-136.5 -139t-189 -74t-245.5 -22q-181 0 -301.5 36t-207.5 120q-170 167 -170 600zM397 723q0 -111 7 -188t26 -135.5t45.5 -93t73 -55.5 t102 -28.5t137.5 -7.5t137.5 7.5t102 28.5t73.5 55.5t46 93t26 135.5t7 188q0 175 -16.5 265t-63.5 142q-45 53 -113 71t-199 18t-198 -18t-115 -71q-46 -52 -62 -143t-16 -264zM408 1792q94 125 217 125q73 0 166 -41t133 -41q64 0 108 90l123 -80q-32 -68 -95 -107.5 t-147 -39.5q-65 0 -155 43q-87 43 -133 43q-64 0 -105 -80zM414 1487l245 182h246l254 -182h-233l-146 110l-141 -110h-225z" />
<glyph unicode="&#x1ed7;" d="M104 526q0 307 119 426q121 121 377 121q260 0 381 -121q119 -119 119 -426q0 -312 -119 -434q-121 -121 -381 -121q-258 0 -379 121q-117 123 -117 434zM219 1163l250 264h250l258 -264h-240l-145 156l-141 -156h-232zM223 1628q91 162 219 162q76 0 168 -53 q97 -54 135 -54q37 0 61.5 26t49.5 91l125 -102q-32 -87 -97 -139t-149 -52q-63 0 -155 56q-91 55 -138 55q-64 0 -104 -102zM367 522q0 -210 47 -278q50 -68 186 -68q138 0 188 68t50 278q-2 79 -6.5 131t-16 92t-27 62.5t-44 36.5t-61 18.5t-83.5 5.5q-139 0 -186 -65 t-47 -281z" />
<glyph unicode="&#x1ed8;" horiz-adv-x="1576" d="M109 727q0 428 170 586q90 81 209 115t300 34q182 0 302 -34.5t206 -114.5q170 -158 170 -586q0 -176 -27.5 -305t-79.5 -216t-136.5 -139t-189 -74t-245.5 -22q-181 0 -301.5 36t-207.5 120q-170 167 -170 600zM397 723q0 -111 7 -188t26 -135.5t45.5 -93t73 -55.5 t102 -28.5t137.5 -7.5t137.5 7.5t102 28.5t73.5 55.5t46 93t26 135.5t7 188q0 175 -16.5 265t-63.5 142q-45 53 -113 71t-199 18t-198 -18t-115 -71q-46 -52 -62 -143t-16 -264zM408 1530l249 264h250l258 -264h-237l-148 160l-143 -160h-229zM664 -240q0 73 25 96t99 23 q76 0 101.5 -23t25.5 -96q0 -81 -25.5 -106t-101.5 -25q-74 0 -99 26t-25 105z" />
<glyph unicode="&#x1ed9;" d="M104 526q0 307 119 426q121 121 377 121q260 0 381 -121q119 -119 119 -426q0 -312 -119 -434q-121 -121 -381 -121q-258 0 -379 121q-117 123 -117 434zM223 1163l250 264h250l258 -264h-240l-145 156l-141 -156h-232zM367 522q0 -210 47 -278q50 -68 186 -68 q138 0 188 68t50 278q-2 79 -6.5 131t-16 92t-27 62.5t-44 36.5t-61 18.5t-83.5 5.5q-139 0 -186 -65t-47 -281zM477 -240q0 73 25 96t100 23q76 0 101.5 -23t25.5 -96q0 -81 -25.5 -106t-101.5 -25q-74 0 -99.5 26t-25.5 105z" />
<glyph unicode="&#x1eda;" horiz-adv-x="1576" d="M109 727q0 428 170 586q90 81 209 115t300 34q284 0 437 -92t207 -313q100 75 100 186h-84v182h199v-165q0 -58 -36 -120.5t-91 -92.5h-86q32 -120 32 -320q0 -176 -27.5 -305t-79.5 -216t-136.5 -139t-189 -74t-245.5 -22q-181 0 -301.5 36t-207.5 120 q-170 167 -170 600zM397 723q0 -111 7 -188t26 -135.5t45.5 -93t73 -55.5t102 -28.5t137.5 -7.5t137.5 7.5t102 28.5t73.5 55.5t46 93t26 135.5t7 188q0 175 -16.5 265t-63.5 142q-45 53 -113 71t-199 18t-198 -18t-115 -71q-46 -52 -62 -143t-16 -264zM561 1530l264 264 h281l-324 -264h-221z" />
<glyph unicode="&#x1edb;" d="M104 526q0 307 119 426q121 121 377 121q233 0 349.5 -90t142.5 -307q96 78 96 184h-84v182h199v-165q0 -58 -36 -120.5t-91 -92.5h-84q8 -76 8 -138q0 -312 -119 -434q-121 -121 -381 -121q-258 0 -379 121q-117 123 -117 434zM367 522q0 -210 47 -278q50 -68 186 -68 q138 0 188 68t50 278q-2 79 -6.5 131t-16 92t-27 62.5t-44 36.5t-61 18.5t-83.5 5.5q-139 0 -186 -65t-47 -281zM403 1163l248 264h273l-297 -264h-224z" />
<glyph unicode="&#x1edc;" horiz-adv-x="1576" d="M109 727q0 428 170 586q90 81 209 115t300 34q284 0 437 -92t207 -313q100 75 100 186h-84v182h199v-165q0 -58 -36 -120.5t-91 -92.5h-86q32 -120 32 -320q0 -176 -27.5 -305t-79.5 -216t-136.5 -139t-189 -74t-245.5 -22q-181 0 -301.5 36t-207.5 120 q-170 167 -170 600zM397 723q0 -111 7 -188t26 -135.5t45.5 -93t73 -55.5t102 -28.5t137.5 -7.5t137.5 7.5t102 28.5t73.5 55.5t46 93t26 135.5t7 188q0 175 -16.5 265t-63.5 142q-45 53 -113 71t-199 18t-198 -18t-115 -71q-46 -52 -62 -143t-16 -264zM469 1794h281 l276 -264h-233z" />
<glyph unicode="&#x1edd;" d="M104 526q0 307 119 426q121 121 377 121q233 0 349.5 -90t142.5 -307q96 78 96 184h-84v182h199v-165q0 -58 -36 -120.5t-91 -92.5h-84q8 -76 8 -138q0 -312 -119 -434q-121 -121 -381 -121q-258 0 -379 121q-117 123 -117 434zM301 1427h270l250 -264h-225zM367 522 q0 -210 47 -278q50 -68 186 -68q138 0 188 68t50 278q-2 79 -6.5 131t-16 92t-27 62.5t-44 36.5t-61 18.5t-83.5 5.5q-139 0 -186 -65t-47 -281z" />
<glyph unicode="&#x1ede;" horiz-adv-x="1576" d="M109 727q0 428 170 586q90 81 209 115t300 34q284 0 437 -92t207 -313q100 75 100 186h-84v182h199v-165q0 -58 -36 -120.5t-91 -92.5h-86q32 -120 32 -320q0 -176 -27.5 -305t-79.5 -216t-136.5 -139t-189 -74t-245.5 -22q-181 0 -301.5 36t-207.5 120 q-170 167 -170 600zM397 723q0 -111 7 -188t26 -135.5t45.5 -93t73 -55.5t102 -28.5t137.5 -7.5t137.5 7.5t102 28.5t73.5 55.5t46 93t26 135.5t7 188q0 175 -16.5 265t-63.5 142q-45 53 -113 71t-199 18t-198 -18t-115 -71q-46 -52 -62 -143t-16 -264zM549 1810 q91 60 250 60q140 0 197 -36.5t57 -117.5q0 -146 -238 -217h-96q96 54 125.5 86t29.5 82q0 36 -21.5 51t-80.5 15q-96 0 -156 -45z" />
<glyph unicode="&#x1edf;" d="M104 526q0 307 119 426q121 121 377 121q233 0 349.5 -90t142.5 -307q96 78 96 184h-84v182h199v-165q0 -58 -36 -120.5t-91 -92.5h-84q8 -76 8 -138q0 -312 -119 -434q-121 -121 -381 -121q-258 0 -379 121q-117 123 -117 434zM360 1460q89 62 250 62q139 0 195.5 -37 t56.5 -123q0 -152 -235 -225h-97q99 55 125 88q31 36 31 86q0 38 -21.5 53.5t-80.5 15.5q-91 0 -156 -47zM367 522q0 -210 47 -278q50 -68 186 -68q138 0 188 68t50 278q-2 79 -6.5 131t-16 92t-27 62.5t-44 36.5t-61 18.5t-83.5 5.5q-139 0 -186 -65t-47 -281z" />
<glyph unicode="&#x1ee0;" horiz-adv-x="1576" d="M109 727q0 428 170 586q90 81 209 115t300 34q284 0 437 -92t207 -313q100 75 100 186h-84v182h199v-165q0 -58 -36 -120.5t-91 -92.5h-86q32 -120 32 -320q0 -176 -27.5 -305t-79.5 -216t-136.5 -139t-189 -74t-245.5 -22q-181 0 -301.5 36t-207.5 120 q-170 167 -170 600zM397 723q0 -111 7 -188t26 -135.5t45.5 -93t73 -55.5t102 -28.5t137.5 -7.5t137.5 7.5t102 28.5t73.5 55.5t46 93t26 135.5t7 188q0 175 -16.5 265t-63.5 142q-45 53 -113 71t-199 18t-198 -18t-115 -71q-46 -52 -62 -143t-16 -264zM412 1628 q91 162 219 162q76 0 168 -53q97 -54 135 -54q37 0 61 25.5t49 91.5l125 -102q-32 -87 -96.5 -139t-148.5 -52q-64 0 -156 56q-91 55 -137 55q-65 0 -105 -102z" />
<glyph unicode="&#x1ee1;" d="M104 526q0 307 119 426q121 121 377 121q233 0 349.5 -90t142.5 -307q96 78 96 184h-84v182h199v-165q0 -58 -36 -120.5t-91 -92.5h-84q8 -76 8 -138q0 -312 -119 -434q-121 -121 -381 -121q-258 0 -379 121q-117 123 -117 434zM229 1262q94 165 224 165q76 0 161 -55 q86 -53 129 -53q37 0 60.5 26t48.5 93l127 -103q-67 -190 -240 -190q-64 0 -153 53q-88 55 -135 55q-64 0 -107 -104zM367 522q0 -210 47 -278q50 -68 186 -68q138 0 188 68t50 278q-2 79 -6.5 131t-16 92t-27 62.5t-44 36.5t-61 18.5t-83.5 5.5q-139 0 -186 -65t-47 -281z " />
<glyph unicode="&#x1ee2;" horiz-adv-x="1576" d="M109 727q0 428 170 586q90 81 209 115t300 34q284 0 437 -92t207 -313q100 75 100 186h-84v182h199v-165q0 -58 -36 -120.5t-91 -92.5h-86q32 -120 32 -320q0 -176 -27.5 -305t-79.5 -216t-136.5 -139t-189 -74t-245.5 -22q-181 0 -301.5 36t-207.5 120 q-170 167 -170 600zM397 723q0 -111 7 -188t26 -135.5t45.5 -93t73 -55.5t102 -28.5t137.5 -7.5t137.5 7.5t102 28.5t73.5 55.5t46 93t26 135.5t7 188q0 175 -16.5 265t-63.5 142q-45 53 -113 71t-199 18t-198 -18t-115 -71q-46 -52 -62 -143t-16 -264zM664 -240q0 73 25 96 t99 23q76 0 101.5 -23t25.5 -96q0 -81 -25.5 -106t-101.5 -25q-74 0 -99 26t-25 105z" />
<glyph unicode="&#x1ee3;" d="M104 526q0 307 119 426q121 121 377 121q233 0 349.5 -90t142.5 -307q96 78 96 184h-84v182h199v-165q0 -58 -36 -120.5t-91 -92.5h-84q8 -76 8 -138q0 -312 -119 -434q-121 -121 -381 -121q-258 0 -379 121q-117 123 -117 434zM367 522q0 -210 47 -278q50 -68 186 -68 q138 0 188 68t50 278q-2 79 -6.5 131t-16 92t-27 62.5t-44 36.5t-61 18.5t-83.5 5.5q-139 0 -186 -65t-47 -281zM477 -240q0 73 25 96t100 23q76 0 101.5 -23t25.5 -96q0 -81 -25.5 -106t-101.5 -25q-74 0 -99.5 26t-25.5 105z" />
<glyph unicode="&#x1ee4;" horiz-adv-x="1519" d="M160 432v995h272v-956q0 -140 75.5 -196t252.5 -56q183 0 256.5 55t73.5 199v954h270v-995q0 -263 -150 -362q-147 -99 -450 -99t-453 99q-147 99 -147 362zM635 -240q0 73 25 96t100 23q76 0 101.5 -23t25.5 -96q0 -81 -25.5 -106t-101.5 -25q-74 0 -99.5 26t-25.5 105z " />
<glyph unicode="&#x1ee5;" horiz-adv-x="1193" d="M135 463v579h254v-555q0 -173 43 -231q46 -55 178 -55q98 0 189 24v817h254v-981q-241 -90 -494 -90q-223 0 -326 109q-98 107 -98 383zM473 -240q0 73 25 96t100 23q76 0 101.5 -23t25.5 -96q0 -81 -25.5 -106t-101.5 -25q-74 0 -99.5 26t-25.5 105z" />
<glyph unicode="&#x1ee6;" horiz-adv-x="1519" d="M160 432v995h272v-956q0 -140 75.5 -196t252.5 -56q183 0 256.5 55t73.5 199v954h270v-995q0 -263 -150 -362q-147 -99 -450 -99t-453 99q-147 99 -147 362zM510 1780q89 59 250 59q139 0 196.5 -36t57.5 -117q0 -147 -238 -218h-96q96 54 126 86t30 82q0 36 -22 51 t-81 15q-95 0 -155 -45z" />
<glyph unicode="&#x1ee7;" horiz-adv-x="1193" d="M135 463v579h254v-555q0 -173 43 -231q46 -55 178 -55q98 0 189 24v817h254v-981q-241 -90 -494 -90q-223 0 -326 109q-98 107 -98 383zM346 1460q89 62 250 62q139 0 195.5 -37t56.5 -123q0 -152 -236 -225h-96q99 55 125 88q31 36 31 86q0 38 -22 53.5t-81 15.5 q-90 0 -155 -47z" />
<glyph unicode="&#x1ee8;" horiz-adv-x="1519" d="M160 432v995h272v-956q0 -140 75.5 -196t252.5 -56q183 0 256.5 55t73.5 199v954h270v-995q0 -263 -150 -362q-147 -99 -450 -99t-453 99q-147 99 -147 362zM578 1530l264 264h280l-323 -264h-221zM1430 1047q112 81 112 196h-84v182h199v-165q0 -58 -36 -120.5 t-91 -92.5h-100z" />
<glyph unicode="&#x1ee9;" horiz-adv-x="1193" d="M135 463v579h254v-555q0 -173 43 -231q46 -55 178 -55q98 0 189 24v817h254v-981q-241 -90 -494 -90q-223 0 -326 109q-98 107 -98 383zM387 1163l248 264h272l-297 -264h-223zM1096 664q112 81 112 196h-84v182h199v-165q0 -58 -36 -120.5t-91 -92.5h-100z" />
<glyph unicode="&#x1eea;" horiz-adv-x="1519" d="M160 432v995h272v-956q0 -140 75.5 -196t252.5 -56q183 0 256.5 55t73.5 199v954h270v-995q0 -263 -150 -362q-147 -99 -450 -99t-453 99q-147 99 -147 362zM416 1794h280l277 -264h-234zM1430 1047q112 81 112 196h-84v182h199v-165q0 -58 -36 -120.5t-91 -92.5h-100z " />
<glyph unicode="&#x1eeb;" horiz-adv-x="1193" d="M135 463v579h254v-555q0 -173 43 -231q46 -55 178 -55q98 0 189 24v817h254v-981q-241 -90 -494 -90q-223 0 -326 109q-98 107 -98 383zM309 1427h271l249 -264h-225zM1096 664q112 81 112 196h-84v182h199v-165q0 -58 -36 -120.5t-91 -92.5h-100z" />
<glyph unicode="&#x1eec;" horiz-adv-x="1519" d="M160 432v995h272v-956q0 -140 75.5 -196t252.5 -56q183 0 256.5 55t73.5 199v954h270v-995q0 -263 -150 -362q-147 -99 -450 -99t-453 99q-147 99 -147 362zM514 1800q91 60 250 60q138 0 196 -36.5t58 -117.5q0 -146 -238 -217h-96q96 54 126 86t30 82q0 36 -22 50.5 t-81 14.5q-95 0 -155 -45zM1430 1047q112 81 112 196h-84v182h199v-165q0 -58 -36 -120.5t-91 -92.5h-100z" />
<glyph unicode="&#x1eed;" horiz-adv-x="1193" d="M135 463v579h254v-555q0 -173 43 -231q46 -55 178 -55q98 0 189 24v817h254v-981q-241 -90 -494 -90q-223 0 -326 109q-98 107 -98 383zM346 1460q89 62 250 62q139 0 195.5 -37t56.5 -123q0 -152 -236 -225h-96q99 55 125 88q31 36 31 86q0 38 -22 53.5t-81 15.5 q-90 0 -155 -47zM1096 664q112 81 112 196h-84v182h199v-165q0 -58 -36 -120.5t-91 -92.5h-100z" />
<glyph unicode="&#x1eee;" horiz-adv-x="1519" d="M160 432v995h272v-956q0 -140 75.5 -196t252.5 -56q183 0 256.5 55t73.5 199v954h270v-995q0 -263 -150 -362q-147 -99 -450 -99t-453 99q-147 99 -147 362zM389 1628q91 162 219 162q76 0 168 -53q97 -54 135 -54q37 0 61.5 26t49.5 91l125 -102q-32 -87 -97 -139 t-149 -52q-64 0 -156 56q-91 55 -137 55q-64 0 -104 -102zM1430 1047q112 81 112 196h-84v182h199v-165q0 -58 -36 -120.5t-91 -92.5h-100z" />
<glyph unicode="&#x1eef;" horiz-adv-x="1193" d="M135 463v579h254v-555q0 -173 43 -231q46 -55 178 -55q98 0 189 24v817h254v-981q-241 -90 -494 -90q-223 0 -326 109q-98 107 -98 383zM219 1262q94 165 223 165q77 0 162 -55q86 -53 129 -53q37 0 60.5 26t48.5 93l127 -103q-67 -190 -240 -190q-65 0 -154 53 q-88 55 -135 55q-63 0 -106 -104zM1096 664q112 81 112 196h-84v182h199v-165q0 -58 -36 -120.5t-91 -92.5h-100z" />
<glyph unicode="&#x1ef0;" horiz-adv-x="1519" d="M160 432v995h272v-956q0 -140 75.5 -196t252.5 -56q183 0 256.5 55t73.5 199v954h270v-995q0 -263 -150 -362q-147 -99 -450 -99t-453 99q-147 99 -147 362zM635 -240q0 73 25 96t100 23q76 0 101.5 -23t25.5 -96q0 -81 -25.5 -106t-101.5 -25q-74 0 -99.5 26t-25.5 105z M1430 1047q112 81 112 196h-84v182h199v-165q0 -58 -36 -120.5t-91 -92.5h-100z" />
<glyph unicode="&#x1ef1;" horiz-adv-x="1193" d="M135 463v579h254v-555q0 -173 43 -231q46 -55 178 -55q98 0 189 24v817h254v-981q-241 -90 -494 -90q-223 0 -326 109q-98 107 -98 383zM473 -240q0 73 25 96t100 23q76 0 101.5 -23t25.5 -96q0 -81 -25.5 -106t-101.5 -25q-74 0 -99.5 26t-25.5 105zM1096 664 q112 81 112 196h-84v182h199v-165q0 -58 -36 -120.5t-91 -92.5h-100z" />
<glyph unicode="&#x1ef2;" horiz-adv-x="1306" d="M-78 1427h352q197 -248 398 -544q227 302 377 544h327q-269 -405 -575 -811v-616h-271v614q-377 532 -608 813zM352 1794h281l276 -264h-233z" />
<glyph unicode="&#x1ef3;" horiz-adv-x="1046" d="M0 1042h264q137 -344 258 -790q177 467 258 790h258q-239 -808 -557 -1435h-282q68 119 170 342q-168 606 -369 1093zM260 1427h270l250 -264h-225z" />
<glyph unicode="&#x1ef4;" horiz-adv-x="1306" d="M-78 1427h352q197 -248 398 -544q227 302 377 544h327q-269 -405 -575 -811v-616h-271v614q-377 532 -608 813zM528 -240q0 73 25 96t100 23q76 0 101.5 -23t25.5 -96q0 -81 -25.5 -106t-101.5 -25q-74 0 -99.5 26t-25.5 105z" />
<glyph unicode="&#x1ef5;" horiz-adv-x="1046" d="M0 1042h264q137 -344 258 -790q177 467 258 790h258q-239 -808 -557 -1435h-282q68 119 170 342q-168 606 -369 1093zM725 -240q0 73 25 96t100 23q76 0 101.5 -23t25.5 -96q0 -81 -25.5 -106t-101.5 -25q-74 0 -99.5 26t-25.5 105z" />
<glyph unicode="&#x1ef6;" horiz-adv-x="1306" d="M-78 1427h352q197 -248 398 -544q227 302 377 544h327q-269 -405 -575 -811v-616h-271v614q-377 532 -608 813zM401 1800q91 60 250 60q140 0 197 -36.5t57 -117.5q0 -146 -237 -217h-97q96 54 126 86t30 82q0 36 -21.5 50.5t-80.5 14.5q-96 0 -156 -45z" />
<glyph unicode="&#x1ef7;" horiz-adv-x="1046" d="M0 1042h264q137 -344 258 -790q177 467 258 790h258q-239 -808 -557 -1435h-282q68 119 170 342q-168 606 -369 1093zM276 1460q89 62 250 62q139 0 195.5 -37t56.5 -123q0 -152 -235 -225h-97q99 55 125 88q31 36 31 86q0 38 -21.5 53.5t-80.5 15.5q-91 0 -156 -47z" />
<glyph unicode="&#x1ef8;" horiz-adv-x="1306" d="M-78 1427h352q197 -248 398 -544q227 302 377 544h327q-269 -405 -575 -811v-616h-271v614q-377 532 -608 813zM285 1628q91 162 219 162q76 0 168 -53q97 -54 135 -54q37 0 61.5 26t49.5 91l124 -102q-32 -87 -96.5 -139t-148.5 -52q-64 0 -156 56q-91 55 -137 55 q-64 0 -105 -102z" />
<glyph unicode="&#x1ef9;" horiz-adv-x="1046" d="M0 1042h264q137 -344 258 -790q177 467 258 790h258q-239 -808 -557 -1435h-282q68 119 170 342q-168 606 -369 1093zM152 1262q94 165 223 165q77 0 162 -55q86 -53 129 -53q37 0 60 25.5t48 93.5l127 -103q-67 -190 -239 -190q-65 0 -154 53q-88 55 -135 55 q-64 0 -107 -104z" />
<glyph unicode="&#x2000;" horiz-adv-x="995" />
<glyph unicode="&#x2001;" horiz-adv-x="1991" />
<glyph unicode="&#x2002;" horiz-adv-x="995" />
<glyph unicode="&#x2003;" horiz-adv-x="1991" />
<glyph unicode="&#x2004;" horiz-adv-x="663" />
<glyph unicode="&#x2005;" horiz-adv-x="497" />
<glyph unicode="&#x2006;" horiz-adv-x="331" />
<glyph unicode="&#x2007;" horiz-adv-x="331" />
<glyph unicode="&#x2008;" horiz-adv-x="248" />
<glyph unicode="&#x2009;" horiz-adv-x="398" />
<glyph unicode="&#x200a;" horiz-adv-x="110" />
<glyph unicode="&#x2010;" horiz-adv-x="622" d="M59 455v241h504v-241h-504z" />
<glyph unicode="&#x2011;" horiz-adv-x="622" d="M59 455v241h504v-241h-504z" />
<glyph unicode="&#x2012;" horiz-adv-x="622" d="M59 455v241h504v-241h-504z" />
<glyph unicode="&#x2013;" horiz-adv-x="1183" d="M100 455v241h983v-241h-983z" />
<glyph unicode="&#x2014;" horiz-adv-x="1771" d="M100 455v241h1571v-241h-1571z" />
<glyph unicode="&#x2018;" horiz-adv-x="522" d="M49 1034l223 537h205l-160 -537h-268z" />
<glyph unicode="&#x2019;" horiz-adv-x="522" d="M47 1024l160 537h268l-223 -537h-205z" />
<glyph unicode="&#x201a;" horiz-adv-x="501" d="M37 -326l160 537h268l-223 -537h-205z" />
<glyph unicode="&#x201c;" horiz-adv-x="921" d="M49 1034l223 537h205l-160 -537h-268zM446 1034l224 537h204l-159 -537h-269z" />
<glyph unicode="&#x201d;" horiz-adv-x="921" d="M47 1026l160 537h268l-223 -537h-205zM444 1026l160 537h268l-223 -537h-205z" />
<glyph unicode="&#x201e;" horiz-adv-x="921" d="M47 -336l160 537h268l-223 -537h-205zM444 -336l160 537h268l-223 -537h-205z" />
<glyph unicode="&#x2026;" horiz-adv-x="2336" d="M289 150q0 89 31 116t126 27q100 0 132 -27t32 -116q0 -97 -33 -128.5t-131 -31.5q-93 0 -125 31.5t-32 128.5zM1006 150q0 89 31.5 116t127.5 27q99 0 130.5 -27t31.5 -116q0 -97 -33.5 -128.5t-128.5 -31.5q-94 0 -126.5 31.5t-32.5 128.5zM1726 150q0 89 31.5 116 t126.5 27q100 0 132 -27t32 -116q0 -97 -33 -128.5t-131 -31.5q-94 0 -126 31.5t-32 128.5z" />
<glyph unicode="&#x202f;" horiz-adv-x="398" />
<glyph unicode="&#x2039;" horiz-adv-x="808" d="M55 639l553 571l146 -149l-361 -418l361 -426l-144 -154z" />
<glyph unicode="&#x203a;" horiz-adv-x="808" d="M55 215l363 418l-363 428l144 151l557 -573l-553 -573z" />
<glyph unicode="&#x205f;" horiz-adv-x="497" />
<glyph unicode="&#x20ac;" horiz-adv-x="1267" d="M20 459l41 174h129v184h-170l41 174h146q41 269 182 369q144 102 434 102q215 0 410 -53l-59 -238q-125 46 -304 46q-185 0 -270 -46q-86 -44 -113 -180h496l-41 -174h-473v-184h416l-41 -174h-357q27 -143 113 -193q86 -47 270 -47q182 0 304 45l59 -241 q-183 -52 -410 -52q-289 0 -434 109q-143 107 -184 379h-185z" />
<glyph unicode="&#x2122;" horiz-adv-x="1687" d="M14 1268v159h648v-159h-232v-576h-182v576h-234zM739 692v735h240l186 -497l181 497h229v-735h-172v512l-178 -483h-142l-172 483v-512h-172z" />
<glyph unicode="&#x25fc;" horiz-adv-x="1044" d="M0 0v1044h1044v-1044h-1044z" />
</font>
</defs>
</svg>
